<?xml version="1.0" encoding="utf-8" standalone="no"?>
<!DOCTYPE svg PUBLIC "-//W3C//DTD SVG 1.1//EN"
  "http://www.w3.org/Graphics/SVG/1.1/DTD/svg11.dtd">
<svg xmlns:xlink="http://www.w3.org/1999/xlink" width="828pt" height="388.8pt" viewBox="0 0 828 388.8" xmlns="http://www.w3.org/2000/svg" version="1.1">
 <metadata>
  <rdf:RDF xmlns:dc="http://purl.org/dc/elements/1.1/" xmlns:cc="http://creativecommons.org/ns#" xmlns:rdf="http://www.w3.org/1999/02/22-rdf-syntax-ns#">
   <cc:Work>
    <dc:type rdf:resource="http://purl.org/dc/dcmitype/StillImage"/>
    <dc:date>2026-07-11T20:42:17.753901</dc:date>
    <dc:format>image/svg+xml</dc:format>
    <dc:creator>
     <cc:Agent>
      <dc:title>Matplotlib v3.10.6, https://matplotlib.org/</dc:title>
     </cc:Agent>
    </dc:creator>
   </cc:Work>
  </rdf:RDF>
 </metadata>
 <defs>
  <style type="text/css">*{stroke-linejoin: round; stroke-linecap: butt}</style>
 </defs>
 <g id="figure_1">
  <g id="patch_1">
   <path d="M 0 388.8 
L 828 388.8 
L 828 0 
L 0 0 
z
" style="fill: #ffffff"/>
  </g>
  <g id="axes_1">
   <g id="patch_2">
    <path d="M 46.595 360.92 
L 793.805429 360.92 
L 793.805429 26.16 
L 46.595 26.16 
z
" style="fill: #ffffff"/>
   </g>
   <g id="line2d_1">
    <path d="M 80.55911 360.92 
L 80.55911 26.16 
" clip-path="url(#p08834b11b7)" style="fill: none; stroke-dasharray: 2.22,0.96; stroke-dashoffset: 0; stroke: #808080; stroke-opacity: 0.7; stroke-width: 0.6"/>
   </g>
   <g id="line2d_2">
    <path d="M 95.881265 360.92 
L 95.881265 26.16 
" clip-path="url(#p08834b11b7)" style="fill: none; stroke-dasharray: 2.22,0.96; stroke-dashoffset: 0; stroke: #808080; stroke-opacity: 0.7; stroke-width: 0.6"/>
   </g>
   <g id="line2d_3">
    <path d="M 107.372882 360.92 
L 107.372882 26.16 
" clip-path="url(#p08834b11b7)" style="fill: none; stroke-dasharray: 2.22,0.96; stroke-dashoffset: 0; stroke: #808080; stroke-opacity: 0.7; stroke-width: 0.6"/>
   </g>
   <g id="line2d_4">
    <path d="M 129.079268 360.92 
L 129.079268 26.16 
" clip-path="url(#p08834b11b7)" style="fill: none; stroke-dasharray: 2.22,0.96; stroke-dashoffset: 0; stroke: #808080; stroke-opacity: 0.7; stroke-width: 0.6"/>
   </g>
   <g id="line2d_5">
    <path d="M 161.000425 360.92 
L 161.000425 26.16 
" clip-path="url(#p08834b11b7)" style="fill: none; stroke-dasharray: 2.22,0.96; stroke-dashoffset: 0; stroke: #808080; stroke-opacity: 0.7; stroke-width: 0.6"/>
   </g>
   <g id="line2d_6">
    <path d="M 163.554117 360.92 
L 163.554117 26.16 
" clip-path="url(#p08834b11b7)" style="fill: none; stroke-dasharray: 2.22,0.96; stroke-dashoffset: 0; stroke: #808080; stroke-opacity: 0.7; stroke-width: 0.6"/>
   </g>
   <g id="line2d_7">
    <path d="M 172.492041 360.92 
L 172.492041 26.16 
" clip-path="url(#p08834b11b7)" style="fill: none; stroke-dasharray: 2.22,0.96; stroke-dashoffset: 0; stroke: #808080; stroke-opacity: 0.7; stroke-width: 0.6"/>
   </g>
   <g id="line2d_8">
    <path d="M 180.153118 360.92 
L 180.153118 26.16 
" clip-path="url(#p08834b11b7)" style="fill: none; stroke-dasharray: 2.22,0.96; stroke-dashoffset: 0; stroke: #808080; stroke-opacity: 0.7; stroke-width: 0.6"/>
   </g>
   <g id="line2d_9">
    <path d="M 237.6112 360.92 
L 237.6112 26.16 
" clip-path="url(#p08834b11b7)" style="fill: none; stroke-dasharray: 2.22,0.96; stroke-dashoffset: 0; stroke: #808080; stroke-opacity: 0.7; stroke-width: 0.6"/>
   </g>
   <g id="line2d_10">
    <path d="M 295.069281 360.92 
L 295.069281 26.16 
" clip-path="url(#p08834b11b7)" style="fill: none; stroke-dasharray: 2.22,0.96; stroke-dashoffset: 0; stroke: #808080; stroke-opacity: 0.7; stroke-width: 0.6"/>
   </g>
   <g id="line2d_11">
    <path d="M 296.346128 360.92 
L 296.346128 26.16 
" clip-path="url(#p08834b11b7)" style="fill: none; stroke-dasharray: 2.22,0.96; stroke-dashoffset: 0; stroke: #808080; stroke-opacity: 0.7; stroke-width: 0.6"/>
   </g>
   <g id="line2d_12">
    <path d="M 304.007205 360.92 
L 304.007205 26.16 
" clip-path="url(#p08834b11b7)" style="fill: none; stroke-dasharray: 2.22,0.96; stroke-dashoffset: 0; stroke: #808080; stroke-opacity: 0.7; stroke-width: 0.6"/>
   </g>
   <g id="line2d_13">
    <path d="M 324.436745 360.92 
L 324.436745 26.16 
" clip-path="url(#p08834b11b7)" style="fill: none; stroke-dasharray: 2.22,0.96; stroke-dashoffset: 0; stroke: #808080; stroke-opacity: 0.7; stroke-width: 0.6"/>
   </g>
   <g id="line2d_14">
    <path d="M 333.374669 360.92 
L 333.374669 26.16 
" clip-path="url(#p08834b11b7)" style="fill: none; stroke-dasharray: 2.22,0.96; stroke-dashoffset: 0; stroke: #808080; stroke-opacity: 0.7; stroke-width: 0.6"/>
   </g>
   <g id="line2d_15">
    <path d="M 397.216982 360.92 
L 397.216982 26.16 
" clip-path="url(#p08834b11b7)" style="fill: none; stroke-dasharray: 2.22,0.96; stroke-dashoffset: 0; stroke: #808080; stroke-opacity: 0.7; stroke-width: 0.6"/>
   </g>
   <g id="line2d_16">
    <path d="M 402.324367 360.92 
L 402.324367 26.16 
" clip-path="url(#p08834b11b7)" style="fill: none; stroke-dasharray: 2.22,0.96; stroke-dashoffset: 0; stroke: #808080; stroke-opacity: 0.7; stroke-width: 0.6"/>
   </g>
   <g id="line2d_17">
    <path d="M 416.369676 360.92 
L 416.369676 26.16 
" clip-path="url(#p08834b11b7)" style="fill: none; stroke-dasharray: 2.22,0.96; stroke-dashoffset: 0; stroke: #808080; stroke-opacity: 0.7; stroke-width: 0.6"/>
   </g>
   <g id="line2d_18">
    <path d="M 435.52237 360.92 
L 435.52237 26.16 
" clip-path="url(#p08834b11b7)" style="fill: none; stroke-dasharray: 2.22,0.96; stroke-dashoffset: 0; stroke: #808080; stroke-opacity: 0.7; stroke-width: 0.6"/>
   </g>
   <g id="line2d_19">
    <path d="M 536.393224 360.92 
L 536.393224 26.16 
" clip-path="url(#p08834b11b7)" style="fill: none; stroke-dasharray: 2.22,0.96; stroke-dashoffset: 0; stroke: #808080; stroke-opacity: 0.7; stroke-width: 0.6"/>
   </g>
   <g id="line2d_20">
    <path d="M 540.223763 360.92 
L 540.223763 26.16 
" clip-path="url(#p08834b11b7)" style="fill: none; stroke-dasharray: 2.22,0.96; stroke-dashoffset: 0; stroke: #808080; stroke-opacity: 0.7; stroke-width: 0.6"/>
   </g>
   <g id="line2d_21">
    <path d="M 542.777455 360.92 
L 542.777455 26.16 
" clip-path="url(#p08834b11b7)" style="fill: none; stroke-dasharray: 2.22,0.96; stroke-dashoffset: 0; stroke: #808080; stroke-opacity: 0.7; stroke-width: 0.6"/>
   </g>
   <g id="line2d_22">
    <path d="M 551.715379 360.92 
L 551.715379 26.16 
" clip-path="url(#p08834b11b7)" style="fill: none; stroke-dasharray: 2.22,0.96; stroke-dashoffset: 0; stroke: #808080; stroke-opacity: 0.7; stroke-width: 0.6"/>
   </g>
   <g id="line2d_23">
    <path d="M 554.269071 360.92 
L 554.269071 26.16 
" clip-path="url(#p08834b11b7)" style="fill: none; stroke-dasharray: 2.22,0.96; stroke-dashoffset: 0; stroke: #808080; stroke-opacity: 0.7; stroke-width: 0.6"/>
   </g>
   <g id="line2d_24">
    <path d="M 558.09961 360.92 
L 558.09961 26.16 
" clip-path="url(#p08834b11b7)" style="fill: none; stroke-dasharray: 2.22,0.96; stroke-dashoffset: 0; stroke: #808080; stroke-opacity: 0.7; stroke-width: 0.6"/>
   </g>
   <g id="line2d_25">
    <path d="M 586.190228 360.92 
L 586.190228 26.16 
" clip-path="url(#p08834b11b7)" style="fill: none; stroke-dasharray: 2.22,0.96; stroke-dashoffset: 0; stroke: #808080; stroke-opacity: 0.7; stroke-width: 0.6"/>
   </g>
   <g id="line2d_26">
    <path d="M 675.569466 360.92 
L 675.569466 26.16 
" clip-path="url(#p08834b11b7)" style="fill: none; stroke-dasharray: 2.22,0.96; stroke-dashoffset: 0; stroke: #808080; stroke-opacity: 0.7; stroke-width: 0.6"/>
   </g>
   <g id="line2d_27">
    <path d="M 756.01078 360.92 
L 756.01078 26.16 
" clip-path="url(#p08834b11b7)" style="fill: none; stroke-dasharray: 2.22,0.96; stroke-dashoffset: 0; stroke: #808080; stroke-opacity: 0.7; stroke-width: 0.6"/>
   </g>
   <g id="line2d_28">
    <path d="M 98.434958 360.92 
L 98.434958 26.16 
" clip-path="url(#p08834b11b7)" style="fill: none; stroke-dasharray: 1,1.65; stroke-dashoffset: 0; stroke: #2ca02c; stroke-opacity: 0.8"/>
   </g>
   <g id="line2d_29">
    <path d="M 99.711804 360.92 
L 99.711804 26.16 
" clip-path="url(#p08834b11b7)" style="fill: none; stroke-dasharray: 1,1.65; stroke-dashoffset: 0; stroke: #2ca02c; stroke-opacity: 0.8"/>
   </g>
   <g id="line2d_30">
    <path d="M 138.017192 360.92 
L 138.017192 26.16 
" clip-path="url(#p08834b11b7)" style="fill: none; stroke-dasharray: 1,1.65; stroke-dashoffset: 0; stroke: #2ca02c; stroke-opacity: 0.8"/>
   </g>
   <g id="line2d_31">
    <path d="M 181.429965 360.92 
L 181.429965 26.16 
" clip-path="url(#p08834b11b7)" style="fill: none; stroke-dasharray: 1,1.65; stroke-dashoffset: 0; stroke: #2ca02c; stroke-opacity: 0.8"/>
   </g>
   <g id="line2d_32">
    <path d="M 223.565891 360.92 
L 223.565891 26.16 
" clip-path="url(#p08834b11b7)" style="fill: none; stroke-dasharray: 1,1.65; stroke-dashoffset: 0; stroke: #2ca02c; stroke-opacity: 0.8"/>
   </g>
   <g id="line2d_33">
    <path d="M 240.164892 360.92 
L 240.164892 26.16 
" clip-path="url(#p08834b11b7)" style="fill: none; stroke-dasharray: 1,1.65; stroke-dashoffset: 0; stroke: #2ca02c; stroke-opacity: 0.8"/>
   </g>
   <g id="line2d_34">
    <path d="M 268.25551 360.92 
L 268.25551 26.16 
" clip-path="url(#p08834b11b7)" style="fill: none; stroke-dasharray: 1,1.65; stroke-dashoffset: 0; stroke: #2ca02c; stroke-opacity: 0.8"/>
   </g>
   <g id="line2d_35">
    <path d="M 314.221975 360.92 
L 314.221975 26.16 
" clip-path="url(#p08834b11b7)" style="fill: none; stroke-dasharray: 1,1.65; stroke-dashoffset: 0; stroke: #2ca02c; stroke-opacity: 0.8"/>
   </g>
   <g id="line2d_36">
    <path d="M 324.436745 360.92 
L 324.436745 26.16 
" clip-path="url(#p08834b11b7)" style="fill: none; stroke-dasharray: 1,1.65; stroke-dashoffset: 0; stroke: #2ca02c; stroke-opacity: 0.8"/>
   </g>
   <g id="line2d_37">
    <path d="M 404.878059 360.92 
L 404.878059 26.16 
" clip-path="url(#p08834b11b7)" style="fill: none; stroke-dasharray: 1,1.65; stroke-dashoffset: 0; stroke: #2ca02c; stroke-opacity: 0.8"/>
   </g>
   <g id="line2d_38">
    <path d="M 441.906601 360.92 
L 441.906601 26.16 
" clip-path="url(#p08834b11b7)" style="fill: none; stroke-dasharray: 1,1.65; stroke-dashoffset: 0; stroke: #2ca02c; stroke-opacity: 0.8"/>
   </g>
   <g id="line2d_39">
    <path d="M 459.782448 360.92 
L 459.782448 26.16 
" clip-path="url(#p08834b11b7)" style="fill: none; stroke-dasharray: 1,1.65; stroke-dashoffset: 0; stroke: #2ca02c; stroke-opacity: 0.8"/>
   </g>
   <g id="line2d_40">
    <path d="M 521.071069 360.92 
L 521.071069 26.16 
" clip-path="url(#p08834b11b7)" style="fill: none; stroke-dasharray: 1,1.65; stroke-dashoffset: 0; stroke: #2ca02c; stroke-opacity: 0.8"/>
   </g>
   <g id="line2d_41">
    <path d="M 547.88484 360.92 
L 547.88484 26.16 
" clip-path="url(#p08834b11b7)" style="fill: none; stroke-dasharray: 1,1.65; stroke-dashoffset: 0; stroke: #2ca02c; stroke-opacity: 0.8"/>
   </g>
   <g id="line2d_42">
    <path d="M 563.206995 360.92 
L 563.206995 26.16 
" clip-path="url(#p08834b11b7)" style="fill: none; stroke-dasharray: 1,1.65; stroke-dashoffset: 0; stroke: #2ca02c; stroke-opacity: 0.8"/>
   </g>
   <g id="line2d_43">
    <path d="M 683.230543 360.92 
L 683.230543 26.16 
" clip-path="url(#p08834b11b7)" style="fill: none; stroke-dasharray: 1,1.65; stroke-dashoffset: 0; stroke: #2ca02c; stroke-opacity: 0.8"/>
   </g>
   <g id="PathCollection_1"/>
   <g id="PathCollection_2"/>
   <g id="PathCollection_3"/>
   <g id="matplotlib.axis_1">
    <g id="xtick_1">
     <g id="line2d_44">
      <defs>
       <path id="m7121369f78" d="M 0 0 
L 0 3.5 
" style="stroke: #000000; stroke-width: 0.8"/>
      </defs>
      <g>
       <use xlink:href="#m7121369f78" x="95.881265" y="360.92" style="stroke: #000000; stroke-width: 0.8"/>
      </g>
     </g>
     <g id="text_1">
      <!-- Feb 2025 -->
      <g transform="translate(72.71564 375.518438) scale(0.1 -0.1)">
       <defs>
        <path id="DejaVuSans-46" d="M 628 4666 
L 3309 4666 
L 3309 4134 
L 1259 4134 
L 1259 2759 
L 3109 2759 
L 3109 2228 
L 1259 2228 
L 1259 0 
L 628 0 
L 628 4666 
z
" transform="scale(0.015625)"/>
        <path id="DejaVuSans-65" d="M 3597 1894 
L 3597 1613 
L 953 1613 
Q 991 1019 1311 708 
Q 1631 397 2203 397 
Q 2534 397 2845 478 
Q 3156 559 3463 722 
L 3463 178 
Q 3153 47 2828 -22 
Q 2503 -91 2169 -91 
Q 1331 -91 842 396 
Q 353 884 353 1716 
Q 353 2575 817 3079 
Q 1281 3584 2069 3584 
Q 2775 3584 3186 3129 
Q 3597 2675 3597 1894 
z
M 3022 2063 
Q 3016 2534 2758 2815 
Q 2500 3097 2075 3097 
Q 1594 3097 1305 2825 
Q 1016 2553 972 2059 
L 3022 2063 
z
" transform="scale(0.015625)"/>
        <path id="DejaVuSans-62" d="M 3116 1747 
Q 3116 2381 2855 2742 
Q 2594 3103 2138 3103 
Q 1681 3103 1420 2742 
Q 1159 2381 1159 1747 
Q 1159 1113 1420 752 
Q 1681 391 2138 391 
Q 2594 391 2855 752 
Q 3116 1113 3116 1747 
z
M 1159 2969 
Q 1341 3281 1617 3432 
Q 1894 3584 2278 3584 
Q 2916 3584 3314 3078 
Q 3713 2572 3713 1747 
Q 3713 922 3314 415 
Q 2916 -91 2278 -91 
Q 1894 -91 1617 61 
Q 1341 213 1159 525 
L 1159 0 
L 581 0 
L 581 4863 
L 1159 4863 
L 1159 2969 
z
" transform="scale(0.015625)"/>
        <path id="DejaVuSans-20" transform="scale(0.015625)"/>
        <path id="DejaVuSans-32" d="M 1228 531 
L 3431 531 
L 3431 0 
L 469 0 
L 469 531 
Q 828 903 1448 1529 
Q 2069 2156 2228 2338 
Q 2531 2678 2651 2914 
Q 2772 3150 2772 3378 
Q 2772 3750 2511 3984 
Q 2250 4219 1831 4219 
Q 1534 4219 1204 4116 
Q 875 4013 500 3803 
L 500 4441 
Q 881 4594 1212 4672 
Q 1544 4750 1819 4750 
Q 2544 4750 2975 4387 
Q 3406 4025 3406 3419 
Q 3406 3131 3298 2873 
Q 3191 2616 2906 2266 
Q 2828 2175 2409 1742 
Q 1991 1309 1228 531 
z
" transform="scale(0.015625)"/>
        <path id="DejaVuSans-30" d="M 2034 4250 
Q 1547 4250 1301 3770 
Q 1056 3291 1056 2328 
Q 1056 1369 1301 889 
Q 1547 409 2034 409 
Q 2525 409 2770 889 
Q 3016 1369 3016 2328 
Q 3016 3291 2770 3770 
Q 2525 4250 2034 4250 
z
M 2034 4750 
Q 2819 4750 3233 4129 
Q 3647 3509 3647 2328 
Q 3647 1150 3233 529 
Q 2819 -91 2034 -91 
Q 1250 -91 836 529 
Q 422 1150 422 2328 
Q 422 3509 836 4129 
Q 1250 4750 2034 4750 
z
" transform="scale(0.015625)"/>
        <path id="DejaVuSans-35" d="M 691 4666 
L 3169 4666 
L 3169 4134 
L 1269 4134 
L 1269 2991 
Q 1406 3038 1543 3061 
Q 1681 3084 1819 3084 
Q 2600 3084 3056 2656 
Q 3513 2228 3513 1497 
Q 3513 744 3044 326 
Q 2575 -91 1722 -91 
Q 1428 -91 1123 -41 
Q 819 9 494 109 
L 494 744 
Q 775 591 1075 516 
Q 1375 441 1709 441 
Q 2250 441 2565 725 
Q 2881 1009 2881 1497 
Q 2881 1984 2565 2268 
Q 2250 2553 1709 2553 
Q 1456 2553 1204 2497 
Q 953 2441 691 2322 
L 691 4666 
z
" transform="scale(0.015625)"/>
       </defs>
       <use xlink:href="#DejaVuSans-46"/>
       <use xlink:href="#DejaVuSans-65" transform="translate(52.019531 0)"/>
       <use xlink:href="#DejaVuSans-62" transform="translate(113.542969 0)"/>
       <use xlink:href="#DejaVuSans-20" transform="translate(177.019531 0)"/>
       <use xlink:href="#DejaVuSans-32" transform="translate(208.806641 0)"/>
       <use xlink:href="#DejaVuSans-30" transform="translate(272.429688 0)"/>
       <use xlink:href="#DejaVuSans-32" transform="translate(336.052734 0)"/>
       <use xlink:href="#DejaVuSans-35" transform="translate(399.675781 0)"/>
      </g>
     </g>
    </g>
    <g id="xtick_2">
     <g id="line2d_45">
      <g>
       <use xlink:href="#m7121369f78" x="209.520582" y="360.92" style="stroke: #000000; stroke-width: 0.8"/>
      </g>
     </g>
     <g id="text_2">
      <!-- May 2025 -->
      <g transform="translate(184.86902 375.518438) scale(0.1 -0.1)">
       <defs>
        <path id="DejaVuSans-4d" d="M 628 4666 
L 1569 4666 
L 2759 1491 
L 3956 4666 
L 4897 4666 
L 4897 0 
L 4281 0 
L 4281 4097 
L 3078 897 
L 2444 897 
L 1241 4097 
L 1241 0 
L 628 0 
L 628 4666 
z
" transform="scale(0.015625)"/>
        <path id="DejaVuSans-61" d="M 2194 1759 
Q 1497 1759 1228 1600 
Q 959 1441 959 1056 
Q 959 750 1161 570 
Q 1363 391 1709 391 
Q 2188 391 2477 730 
Q 2766 1069 2766 1631 
L 2766 1759 
L 2194 1759 
z
M 3341 1997 
L 3341 0 
L 2766 0 
L 2766 531 
Q 2569 213 2275 61 
Q 1981 -91 1556 -91 
Q 1019 -91 701 211 
Q 384 513 384 1019 
Q 384 1609 779 1909 
Q 1175 2209 1959 2209 
L 2766 2209 
L 2766 2266 
Q 2766 2663 2505 2880 
Q 2244 3097 1772 3097 
Q 1472 3097 1187 3025 
Q 903 2953 641 2809 
L 641 3341 
Q 956 3463 1253 3523 
Q 1550 3584 1831 3584 
Q 2591 3584 2966 3190 
Q 3341 2797 3341 1997 
z
" transform="scale(0.015625)"/>
        <path id="DejaVuSans-79" d="M 2059 -325 
Q 1816 -950 1584 -1140 
Q 1353 -1331 966 -1331 
L 506 -1331 
L 506 -850 
L 844 -850 
Q 1081 -850 1212 -737 
Q 1344 -625 1503 -206 
L 1606 56 
L 191 3500 
L 800 3500 
L 1894 763 
L 2988 3500 
L 3597 3500 
L 2059 -325 
z
" transform="scale(0.015625)"/>
       </defs>
       <use xlink:href="#DejaVuSans-4d"/>
       <use xlink:href="#DejaVuSans-61" transform="translate(86.279297 0)"/>
       <use xlink:href="#DejaVuSans-79" transform="translate(147.558594 0)"/>
       <use xlink:href="#DejaVuSans-20" transform="translate(206.738281 0)"/>
       <use xlink:href="#DejaVuSans-32" transform="translate(238.525391 0)"/>
       <use xlink:href="#DejaVuSans-30" transform="translate(302.148438 0)"/>
       <use xlink:href="#DejaVuSans-32" transform="translate(365.771484 0)"/>
       <use xlink:href="#DejaVuSans-35" transform="translate(429.394531 0)"/>
      </g>
     </g>
    </g>
    <g id="xtick_3">
     <g id="line2d_46">
      <g>
       <use xlink:href="#m7121369f78" x="326.990438" y="360.92" style="stroke: #000000; stroke-width: 0.8"/>
      </g>
     </g>
     <g id="text_3">
      <!-- Aug 2025 -->
      <g transform="translate(302.913094 375.518438) scale(0.1 -0.1)">
       <defs>
        <path id="DejaVuSans-41" d="M 2188 4044 
L 1331 1722 
L 3047 1722 
L 2188 4044 
z
M 1831 4666 
L 2547 4666 
L 4325 0 
L 3669 0 
L 3244 1197 
L 1141 1197 
L 716 0 
L 50 0 
L 1831 4666 
z
" transform="scale(0.015625)"/>
        <path id="DejaVuSans-75" d="M 544 1381 
L 544 3500 
L 1119 3500 
L 1119 1403 
Q 1119 906 1312 657 
Q 1506 409 1894 409 
Q 2359 409 2629 706 
Q 2900 1003 2900 1516 
L 2900 3500 
L 3475 3500 
L 3475 0 
L 2900 0 
L 2900 538 
Q 2691 219 2414 64 
Q 2138 -91 1772 -91 
Q 1169 -91 856 284 
Q 544 659 544 1381 
z
M 1991 3584 
L 1991 3584 
z
" transform="scale(0.015625)"/>
        <path id="DejaVuSans-67" d="M 2906 1791 
Q 2906 2416 2648 2759 
Q 2391 3103 1925 3103 
Q 1463 3103 1205 2759 
Q 947 2416 947 1791 
Q 947 1169 1205 825 
Q 1463 481 1925 481 
Q 2391 481 2648 825 
Q 2906 1169 2906 1791 
z
M 3481 434 
Q 3481 -459 3084 -895 
Q 2688 -1331 1869 -1331 
Q 1566 -1331 1297 -1286 
Q 1028 -1241 775 -1147 
L 775 -588 
Q 1028 -725 1275 -790 
Q 1522 -856 1778 -856 
Q 2344 -856 2625 -561 
Q 2906 -266 2906 331 
L 2906 616 
Q 2728 306 2450 153 
Q 2172 0 1784 0 
Q 1141 0 747 490 
Q 353 981 353 1791 
Q 353 2603 747 3093 
Q 1141 3584 1784 3584 
Q 2172 3584 2450 3431 
Q 2728 3278 2906 2969 
L 2906 3500 
L 3481 3500 
L 3481 434 
z
" transform="scale(0.015625)"/>
       </defs>
       <use xlink:href="#DejaVuSans-41"/>
       <use xlink:href="#DejaVuSans-75" transform="translate(68.408203 0)"/>
       <use xlink:href="#DejaVuSans-67" transform="translate(131.787109 0)"/>
       <use xlink:href="#DejaVuSans-20" transform="translate(195.263672 0)"/>
       <use xlink:href="#DejaVuSans-32" transform="translate(227.050781 0)"/>
       <use xlink:href="#DejaVuSans-30" transform="translate(290.673828 0)"/>
       <use xlink:href="#DejaVuSans-32" transform="translate(354.296875 0)"/>
       <use xlink:href="#DejaVuSans-35" transform="translate(417.919922 0)"/>
      </g>
     </g>
    </g>
    <g id="xtick_4">
     <g id="line2d_47">
      <g>
       <use xlink:href="#m7121369f78" x="444.460293" y="360.92" style="stroke: #000000; stroke-width: 0.8"/>
      </g>
     </g>
     <g id="text_4">
      <!-- Nov 2025 -->
      <g transform="translate(420.386856 375.518438) scale(0.1 -0.1)">
       <defs>
        <path id="DejaVuSans-4e" d="M 628 4666 
L 1478 4666 
L 3547 763 
L 3547 4666 
L 4159 4666 
L 4159 0 
L 3309 0 
L 1241 3903 
L 1241 0 
L 628 0 
L 628 4666 
z
" transform="scale(0.015625)"/>
        <path id="DejaVuSans-6f" d="M 1959 3097 
Q 1497 3097 1228 2736 
Q 959 2375 959 1747 
Q 959 1119 1226 758 
Q 1494 397 1959 397 
Q 2419 397 2687 759 
Q 2956 1122 2956 1747 
Q 2956 2369 2687 2733 
Q 2419 3097 1959 3097 
z
M 1959 3584 
Q 2709 3584 3137 3096 
Q 3566 2609 3566 1747 
Q 3566 888 3137 398 
Q 2709 -91 1959 -91 
Q 1206 -91 779 398 
Q 353 888 353 1747 
Q 353 2609 779 3096 
Q 1206 3584 1959 3584 
z
" transform="scale(0.015625)"/>
        <path id="DejaVuSans-76" d="M 191 3500 
L 800 3500 
L 1894 563 
L 2988 3500 
L 3597 3500 
L 2284 0 
L 1503 0 
L 191 3500 
z
" transform="scale(0.015625)"/>
       </defs>
       <use xlink:href="#DejaVuSans-4e"/>
       <use xlink:href="#DejaVuSans-6f" transform="translate(74.804688 0)"/>
       <use xlink:href="#DejaVuSans-76" transform="translate(135.986328 0)"/>
       <use xlink:href="#DejaVuSans-20" transform="translate(195.166016 0)"/>
       <use xlink:href="#DejaVuSans-32" transform="translate(226.953125 0)"/>
       <use xlink:href="#DejaVuSans-30" transform="translate(290.576172 0)"/>
       <use xlink:href="#DejaVuSans-32" transform="translate(354.199219 0)"/>
       <use xlink:href="#DejaVuSans-35" transform="translate(417.822266 0)"/>
      </g>
     </g>
    </g>
    <g id="xtick_5">
     <g id="line2d_48">
      <g>
       <use xlink:href="#m7121369f78" x="561.930149" y="360.92" style="stroke: #000000; stroke-width: 0.8"/>
      </g>
     </g>
     <g id="text_5">
      <!-- Feb 2026 -->
      <g transform="translate(538.764524 375.518438) scale(0.1 -0.1)">
       <defs>
        <path id="DejaVuSans-36" d="M 2113 2584 
Q 1688 2584 1439 2293 
Q 1191 2003 1191 1497 
Q 1191 994 1439 701 
Q 1688 409 2113 409 
Q 2538 409 2786 701 
Q 3034 994 3034 1497 
Q 3034 2003 2786 2293 
Q 2538 2584 2113 2584 
z
M 3366 4563 
L 3366 3988 
Q 3128 4100 2886 4159 
Q 2644 4219 2406 4219 
Q 1781 4219 1451 3797 
Q 1122 3375 1075 2522 
Q 1259 2794 1537 2939 
Q 1816 3084 2150 3084 
Q 2853 3084 3261 2657 
Q 3669 2231 3669 1497 
Q 3669 778 3244 343 
Q 2819 -91 2113 -91 
Q 1303 -91 875 529 
Q 447 1150 447 2328 
Q 447 3434 972 4092 
Q 1497 4750 2381 4750 
Q 2619 4750 2861 4703 
Q 3103 4656 3366 4563 
z
" transform="scale(0.015625)"/>
       </defs>
       <use xlink:href="#DejaVuSans-46"/>
       <use xlink:href="#DejaVuSans-65" transform="translate(52.019531 0)"/>
       <use xlink:href="#DejaVuSans-62" transform="translate(113.542969 0)"/>
       <use xlink:href="#DejaVuSans-20" transform="translate(177.019531 0)"/>
       <use xlink:href="#DejaVuSans-32" transform="translate(208.806641 0)"/>
       <use xlink:href="#DejaVuSans-30" transform="translate(272.429688 0)"/>
       <use xlink:href="#DejaVuSans-32" transform="translate(336.052734 0)"/>
       <use xlink:href="#DejaVuSans-36" transform="translate(399.675781 0)"/>
      </g>
     </g>
    </g>
    <g id="xtick_6">
     <g id="line2d_49">
      <g>
       <use xlink:href="#m7121369f78" x="675.569466" y="360.92" style="stroke: #000000; stroke-width: 0.8"/>
      </g>
     </g>
     <g id="text_6">
      <!-- May 2026 -->
      <g transform="translate(650.917903 375.518438) scale(0.1 -0.1)">
       <use xlink:href="#DejaVuSans-4d"/>
       <use xlink:href="#DejaVuSans-61" transform="translate(86.279297 0)"/>
       <use xlink:href="#DejaVuSans-79" transform="translate(147.558594 0)"/>
       <use xlink:href="#DejaVuSans-20" transform="translate(206.738281 0)"/>
       <use xlink:href="#DejaVuSans-32" transform="translate(238.525391 0)"/>
       <use xlink:href="#DejaVuSans-30" transform="translate(302.148438 0)"/>
       <use xlink:href="#DejaVuSans-32" transform="translate(365.771484 0)"/>
       <use xlink:href="#DejaVuSans-36" transform="translate(429.394531 0)"/>
      </g>
     </g>
    </g>
    <g id="xtick_7">
     <g id="line2d_50">
      <g>
       <use xlink:href="#m7121369f78" x="793.039321" y="360.92" style="stroke: #000000; stroke-width: 0.8"/>
      </g>
     </g>
     <g id="text_7">
      <!-- Aug 2026 -->
      <g transform="translate(768.961977 375.518438) scale(0.1 -0.1)">
       <use xlink:href="#DejaVuSans-41"/>
       <use xlink:href="#DejaVuSans-75" transform="translate(68.408203 0)"/>
       <use xlink:href="#DejaVuSans-67" transform="translate(131.787109 0)"/>
       <use xlink:href="#DejaVuSans-20" transform="translate(195.263672 0)"/>
       <use xlink:href="#DejaVuSans-32" transform="translate(227.050781 0)"/>
       <use xlink:href="#DejaVuSans-30" transform="translate(290.673828 0)"/>
       <use xlink:href="#DejaVuSans-32" transform="translate(354.296875 0)"/>
       <use xlink:href="#DejaVuSans-36" transform="translate(417.919922 0)"/>
      </g>
     </g>
    </g>
   </g>
   <g id="matplotlib.axis_2">
    <g id="ytick_1">
     <g id="line2d_51">
      <defs>
       <path id="mcadea798d5" d="M 0 0 
L -3.5 0 
" style="stroke: #000000; stroke-width: 0.8"/>
      </defs>
      <g>
       <use xlink:href="#mcadea798d5" x="46.595" y="349.147457" style="stroke: #000000; stroke-width: 0.8"/>
      </g>
     </g>
     <g id="text_8">
      <!-- −6 -->
      <g transform="translate(24.852813 352.946675) scale(0.1 -0.1)">
       <defs>
        <path id="DejaVuSans-2212" d="M 678 2272 
L 4684 2272 
L 4684 1741 
L 678 1741 
L 678 2272 
z
" transform="scale(0.015625)"/>
       </defs>
       <use xlink:href="#DejaVuSans-2212"/>
       <use xlink:href="#DejaVuSans-36" transform="translate(83.789062 0)"/>
      </g>
     </g>
    </g>
    <g id="ytick_2">
     <g id="line2d_52">
      <g>
       <use xlink:href="#mcadea798d5" x="46.595" y="294.758656" style="stroke: #000000; stroke-width: 0.8"/>
      </g>
     </g>
     <g id="text_9">
      <!-- −4 -->
      <g transform="translate(24.852813 298.557874) scale(0.1 -0.1)">
       <defs>
        <path id="DejaVuSans-34" d="M 2419 4116 
L 825 1625 
L 2419 1625 
L 2419 4116 
z
M 2253 4666 
L 3047 4666 
L 3047 1625 
L 3713 1625 
L 3713 1100 
L 3047 1100 
L 3047 0 
L 2419 0 
L 2419 1100 
L 313 1100 
L 313 1709 
L 2253 4666 
z
" transform="scale(0.015625)"/>
       </defs>
       <use xlink:href="#DejaVuSans-2212"/>
       <use xlink:href="#DejaVuSans-34" transform="translate(83.789062 0)"/>
      </g>
     </g>
    </g>
    <g id="ytick_3">
     <g id="line2d_53">
      <g>
       <use xlink:href="#mcadea798d5" x="46.595" y="240.369855" style="stroke: #000000; stroke-width: 0.8"/>
      </g>
     </g>
     <g id="text_10">
      <!-- −2 -->
      <g transform="translate(24.852813 244.169074) scale(0.1 -0.1)">
       <use xlink:href="#DejaVuSans-2212"/>
       <use xlink:href="#DejaVuSans-32" transform="translate(83.789062 0)"/>
      </g>
     </g>
    </g>
    <g id="ytick_4">
     <g id="line2d_54">
      <g>
       <use xlink:href="#mcadea798d5" x="46.595" y="185.981054" style="stroke: #000000; stroke-width: 0.8"/>
      </g>
     </g>
     <g id="text_11">
      <!-- 0 -->
      <g transform="translate(33.2325 189.780273) scale(0.1 -0.1)">
       <use xlink:href="#DejaVuSans-30"/>
      </g>
     </g>
    </g>
    <g id="ytick_5">
     <g id="line2d_55">
      <g>
       <use xlink:href="#mcadea798d5" x="46.595" y="131.592253" style="stroke: #000000; stroke-width: 0.8"/>
      </g>
     </g>
     <g id="text_12">
      <!-- 2 -->
      <g transform="translate(33.2325 135.391472) scale(0.1 -0.1)">
       <use xlink:href="#DejaVuSans-32"/>
      </g>
     </g>
    </g>
    <g id="ytick_6">
     <g id="line2d_56">
      <g>
       <use xlink:href="#mcadea798d5" x="46.595" y="77.203452" style="stroke: #000000; stroke-width: 0.8"/>
      </g>
     </g>
     <g id="text_13">
      <!-- 4 -->
      <g transform="translate(33.2325 81.002671) scale(0.1 -0.1)">
       <use xlink:href="#DejaVuSans-34"/>
      </g>
     </g>
    </g>
    <g id="text_14">
     <!-- Scaled market reaction (standard deviations) -->
     <g transform="translate(18.773125 306.599375) rotate(-90) scale(0.1 -0.1)">
      <defs>
       <path id="DejaVuSans-53" d="M 3425 4513 
L 3425 3897 
Q 3066 4069 2747 4153 
Q 2428 4238 2131 4238 
Q 1616 4238 1336 4038 
Q 1056 3838 1056 3469 
Q 1056 3159 1242 3001 
Q 1428 2844 1947 2747 
L 2328 2669 
Q 3034 2534 3370 2195 
Q 3706 1856 3706 1288 
Q 3706 609 3251 259 
Q 2797 -91 1919 -91 
Q 1588 -91 1214 -16 
Q 841 59 441 206 
L 441 856 
Q 825 641 1194 531 
Q 1563 422 1919 422 
Q 2459 422 2753 634 
Q 3047 847 3047 1241 
Q 3047 1584 2836 1778 
Q 2625 1972 2144 2069 
L 1759 2144 
Q 1053 2284 737 2584 
Q 422 2884 422 3419 
Q 422 4038 858 4394 
Q 1294 4750 2059 4750 
Q 2388 4750 2728 4690 
Q 3069 4631 3425 4513 
z
" transform="scale(0.015625)"/>
       <path id="DejaVuSans-63" d="M 3122 3366 
L 3122 2828 
Q 2878 2963 2633 3030 
Q 2388 3097 2138 3097 
Q 1578 3097 1268 2742 
Q 959 2388 959 1747 
Q 959 1106 1268 751 
Q 1578 397 2138 397 
Q 2388 397 2633 464 
Q 2878 531 3122 666 
L 3122 134 
Q 2881 22 2623 -34 
Q 2366 -91 2075 -91 
Q 1284 -91 818 406 
Q 353 903 353 1747 
Q 353 2603 823 3093 
Q 1294 3584 2113 3584 
Q 2378 3584 2631 3529 
Q 2884 3475 3122 3366 
z
" transform="scale(0.015625)"/>
       <path id="DejaVuSans-6c" d="M 603 4863 
L 1178 4863 
L 1178 0 
L 603 0 
L 603 4863 
z
" transform="scale(0.015625)"/>
       <path id="DejaVuSans-64" d="M 2906 2969 
L 2906 4863 
L 3481 4863 
L 3481 0 
L 2906 0 
L 2906 525 
Q 2725 213 2448 61 
Q 2172 -91 1784 -91 
Q 1150 -91 751 415 
Q 353 922 353 1747 
Q 353 2572 751 3078 
Q 1150 3584 1784 3584 
Q 2172 3584 2448 3432 
Q 2725 3281 2906 2969 
z
M 947 1747 
Q 947 1113 1208 752 
Q 1469 391 1925 391 
Q 2381 391 2643 752 
Q 2906 1113 2906 1747 
Q 2906 2381 2643 2742 
Q 2381 3103 1925 3103 
Q 1469 3103 1208 2742 
Q 947 2381 947 1747 
z
" transform="scale(0.015625)"/>
       <path id="DejaVuSans-6d" d="M 3328 2828 
Q 3544 3216 3844 3400 
Q 4144 3584 4550 3584 
Q 5097 3584 5394 3201 
Q 5691 2819 5691 2113 
L 5691 0 
L 5113 0 
L 5113 2094 
Q 5113 2597 4934 2840 
Q 4756 3084 4391 3084 
Q 3944 3084 3684 2787 
Q 3425 2491 3425 1978 
L 3425 0 
L 2847 0 
L 2847 2094 
Q 2847 2600 2669 2842 
Q 2491 3084 2119 3084 
Q 1678 3084 1418 2786 
Q 1159 2488 1159 1978 
L 1159 0 
L 581 0 
L 581 3500 
L 1159 3500 
L 1159 2956 
Q 1356 3278 1631 3431 
Q 1906 3584 2284 3584 
Q 2666 3584 2933 3390 
Q 3200 3197 3328 2828 
z
" transform="scale(0.015625)"/>
       <path id="DejaVuSans-72" d="M 2631 2963 
Q 2534 3019 2420 3045 
Q 2306 3072 2169 3072 
Q 1681 3072 1420 2755 
Q 1159 2438 1159 1844 
L 1159 0 
L 581 0 
L 581 3500 
L 1159 3500 
L 1159 2956 
Q 1341 3275 1631 3429 
Q 1922 3584 2338 3584 
Q 2397 3584 2469 3576 
Q 2541 3569 2628 3553 
L 2631 2963 
z
" transform="scale(0.015625)"/>
       <path id="DejaVuSans-6b" d="M 581 4863 
L 1159 4863 
L 1159 1991 
L 2875 3500 
L 3609 3500 
L 1753 1863 
L 3688 0 
L 2938 0 
L 1159 1709 
L 1159 0 
L 581 0 
L 581 4863 
z
" transform="scale(0.015625)"/>
       <path id="DejaVuSans-74" d="M 1172 4494 
L 1172 3500 
L 2356 3500 
L 2356 3053 
L 1172 3053 
L 1172 1153 
Q 1172 725 1289 603 
Q 1406 481 1766 481 
L 2356 481 
L 2356 0 
L 1766 0 
Q 1100 0 847 248 
Q 594 497 594 1153 
L 594 3053 
L 172 3053 
L 172 3500 
L 594 3500 
L 594 4494 
L 1172 4494 
z
" transform="scale(0.015625)"/>
       <path id="DejaVuSans-69" d="M 603 3500 
L 1178 3500 
L 1178 0 
L 603 0 
L 603 3500 
z
M 603 4863 
L 1178 4863 
L 1178 4134 
L 603 4134 
L 603 4863 
z
" transform="scale(0.015625)"/>
       <path id="DejaVuSans-6e" d="M 3513 2113 
L 3513 0 
L 2938 0 
L 2938 2094 
Q 2938 2591 2744 2837 
Q 2550 3084 2163 3084 
Q 1697 3084 1428 2787 
Q 1159 2491 1159 1978 
L 1159 0 
L 581 0 
L 581 3500 
L 1159 3500 
L 1159 2956 
Q 1366 3272 1645 3428 
Q 1925 3584 2291 3584 
Q 2894 3584 3203 3211 
Q 3513 2838 3513 2113 
z
" transform="scale(0.015625)"/>
       <path id="DejaVuSans-28" d="M 1984 4856 
Q 1566 4138 1362 3434 
Q 1159 2731 1159 2009 
Q 1159 1288 1364 580 
Q 1569 -128 1984 -844 
L 1484 -844 
Q 1016 -109 783 600 
Q 550 1309 550 2009 
Q 550 2706 781 3412 
Q 1013 4119 1484 4856 
L 1984 4856 
z
" transform="scale(0.015625)"/>
       <path id="DejaVuSans-73" d="M 2834 3397 
L 2834 2853 
Q 2591 2978 2328 3040 
Q 2066 3103 1784 3103 
Q 1356 3103 1142 2972 
Q 928 2841 928 2578 
Q 928 2378 1081 2264 
Q 1234 2150 1697 2047 
L 1894 2003 
Q 2506 1872 2764 1633 
Q 3022 1394 3022 966 
Q 3022 478 2636 193 
Q 2250 -91 1575 -91 
Q 1294 -91 989 -36 
Q 684 19 347 128 
L 347 722 
Q 666 556 975 473 
Q 1284 391 1588 391 
Q 1994 391 2212 530 
Q 2431 669 2431 922 
Q 2431 1156 2273 1281 
Q 2116 1406 1581 1522 
L 1381 1569 
Q 847 1681 609 1914 
Q 372 2147 372 2553 
Q 372 3047 722 3315 
Q 1072 3584 1716 3584 
Q 2034 3584 2315 3537 
Q 2597 3491 2834 3397 
z
" transform="scale(0.015625)"/>
       <path id="DejaVuSans-29" d="M 513 4856 
L 1013 4856 
Q 1481 4119 1714 3412 
Q 1947 2706 1947 2009 
Q 1947 1309 1714 600 
Q 1481 -109 1013 -844 
L 513 -844 
Q 928 -128 1133 580 
Q 1338 1288 1338 2009 
Q 1338 2731 1133 3434 
Q 928 4138 513 4856 
z
" transform="scale(0.015625)"/>
      </defs>
      <use xlink:href="#DejaVuSans-53"/>
      <use xlink:href="#DejaVuSans-63" transform="translate(63.476562 0)"/>
      <use xlink:href="#DejaVuSans-61" transform="translate(118.457031 0)"/>
      <use xlink:href="#DejaVuSans-6c" transform="translate(179.736328 0)"/>
      <use xlink:href="#DejaVuSans-65" transform="translate(207.519531 0)"/>
      <use xlink:href="#DejaVuSans-64" transform="translate(269.042969 0)"/>
      <use xlink:href="#DejaVuSans-20" transform="translate(332.519531 0)"/>
      <use xlink:href="#DejaVuSans-6d" transform="translate(364.306641 0)"/>
      <use xlink:href="#DejaVuSans-61" transform="translate(461.71875 0)"/>
      <use xlink:href="#DejaVuSans-72" transform="translate(522.998047 0)"/>
      <use xlink:href="#DejaVuSans-6b" transform="translate(564.111328 0)"/>
      <use xlink:href="#DejaVuSans-65" transform="translate(618.396484 0)"/>
      <use xlink:href="#DejaVuSans-74" transform="translate(679.919922 0)"/>
      <use xlink:href="#DejaVuSans-20" transform="translate(719.128906 0)"/>
      <use xlink:href="#DejaVuSans-72" transform="translate(750.916016 0)"/>
      <use xlink:href="#DejaVuSans-65" transform="translate(789.779297 0)"/>
      <use xlink:href="#DejaVuSans-61" transform="translate(851.302734 0)"/>
      <use xlink:href="#DejaVuSans-63" transform="translate(912.582031 0)"/>
      <use xlink:href="#DejaVuSans-74" transform="translate(967.5625 0)"/>
      <use xlink:href="#DejaVuSans-69" transform="translate(1006.771484 0)"/>
      <use xlink:href="#DejaVuSans-6f" transform="translate(1034.554688 0)"/>
      <use xlink:href="#DejaVuSans-6e" transform="translate(1095.736328 0)"/>
      <use xlink:href="#DejaVuSans-20" transform="translate(1159.115234 0)"/>
      <use xlink:href="#DejaVuSans-28" transform="translate(1190.902344 0)"/>
      <use xlink:href="#DejaVuSans-73" transform="translate(1229.916016 0)"/>
      <use xlink:href="#DejaVuSans-74" transform="translate(1282.015625 0)"/>
      <use xlink:href="#DejaVuSans-61" transform="translate(1321.224609 0)"/>
      <use xlink:href="#DejaVuSans-6e" transform="translate(1382.503906 0)"/>
      <use xlink:href="#DejaVuSans-64" transform="translate(1445.882812 0)"/>
      <use xlink:href="#DejaVuSans-61" transform="translate(1509.359375 0)"/>
      <use xlink:href="#DejaVuSans-72" transform="translate(1570.638672 0)"/>
      <use xlink:href="#DejaVuSans-64" transform="translate(1610.001953 0)"/>
      <use xlink:href="#DejaVuSans-20" transform="translate(1673.478516 0)"/>
      <use xlink:href="#DejaVuSans-64" transform="translate(1705.265625 0)"/>
      <use xlink:href="#DejaVuSans-65" transform="translate(1768.742188 0)"/>
      <use xlink:href="#DejaVuSans-76" transform="translate(1830.265625 0)"/>
      <use xlink:href="#DejaVuSans-69" transform="translate(1889.445312 0)"/>
      <use xlink:href="#DejaVuSans-61" transform="translate(1917.228516 0)"/>
      <use xlink:href="#DejaVuSans-74" transform="translate(1978.507812 0)"/>
      <use xlink:href="#DejaVuSans-69" transform="translate(2017.716797 0)"/>
      <use xlink:href="#DejaVuSans-6f" transform="translate(2045.5 0)"/>
      <use xlink:href="#DejaVuSans-6e" transform="translate(2106.681641 0)"/>
      <use xlink:href="#DejaVuSans-73" transform="translate(2170.060547 0)"/>
      <use xlink:href="#DejaVuSans-29" transform="translate(2222.160156 0)"/>
     </g>
    </g>
   </g>
   <g id="line2d_57">
    <path d="M 46.595 185.981054 
L 793.805429 185.981054 
" clip-path="url(#p08834b11b7)" style="fill: none; stroke: #000000; stroke-width: 0.8; stroke-linecap: square"/>
   </g>
   <g id="patch_3">
    <path d="M 46.595 360.92 
L 46.595 26.16 
" style="fill: none; stroke: #000000; stroke-width: 0.8; stroke-linejoin: miter; stroke-linecap: square"/>
   </g>
   <g id="patch_4">
    <path d="M 793.805429 360.92 
L 793.805429 26.16 
" style="fill: none; stroke: #000000; stroke-width: 0.8; stroke-linejoin: miter; stroke-linecap: square"/>
   </g>
   <g id="patch_5">
    <path d="M 46.595 360.92 
L 793.805429 360.92 
" style="fill: none; stroke: #000000; stroke-width: 0.8; stroke-linejoin: miter; stroke-linecap: square"/>
   </g>
   <g id="patch_6">
    <path d="M 46.595 26.16 
L 793.805429 26.16 
" style="fill: none; stroke: #000000; stroke-width: 0.8; stroke-linejoin: miter; stroke-linecap: square"/>
   </g>
   <g id="PathCollection_4">
    <defs>
     <path id="me1417b3e27" d="M 0 5.562149 
C 1.475099 5.562149 2.889981 4.976086 3.933033 3.933033 
C 4.976086 2.889981 5.562149 1.475099 5.562149 0 
C 5.562149 -1.475099 4.976086 -2.889981 3.933033 -3.933033 
C 2.889981 -4.976086 1.475099 -5.562149 0 -5.562149 
C -1.475099 -5.562149 -2.889981 -4.976086 -3.933033 -3.933033 
C -4.976086 -2.889981 -5.562149 -1.475099 -5.562149 0 
C -5.562149 1.475099 -4.976086 2.889981 -3.933033 3.933033 
C -2.889981 4.976086 -1.475099 5.562149 0 5.562149 
z
" style="stroke: #ffffff; stroke-opacity: 0.85; stroke-width: 0.6"/>
    </defs>
    <g clip-path="url(#p08834b11b7)">
     <use xlink:href="#me1417b3e27" x="81.835957" y="159.768367" style="fill: #1f77b4; fill-opacity: 0.85; stroke: #ffffff; stroke-opacity: 0.85; stroke-width: 0.6"/>
    </g>
   </g>
   <g id="PathCollection_5">
    <defs>
     <path id="m3c15db47d0" d="M 0 6.07042 
C 1.609894 6.07042 3.154068 5.430802 4.292435 4.292435 
C 5.430802 3.154068 6.07042 1.609894 6.07042 0 
C 6.07042 -1.609894 5.430802 -3.154068 4.292435 -4.292435 
C 3.154068 -5.430802 1.609894 -6.07042 0 -6.07042 
C -1.609894 -6.07042 -3.154068 -5.430802 -4.292435 -4.292435 
C -5.430802 -3.154068 -6.07042 -1.609894 -6.07042 0 
C -6.07042 1.609894 -5.430802 3.154068 -4.292435 4.292435 
C -3.154068 5.430802 -1.609894 6.07042 0 6.07042 
z
" style="stroke: #ffffff; stroke-opacity: 0.85; stroke-width: 0.6"/>
    </defs>
    <g clip-path="url(#p08834b11b7)">
     <use xlink:href="#m3c15db47d0" x="98.434958" y="186.123714" style="fill: #1f77b4; fill-opacity: 0.85; stroke: #ffffff; stroke-opacity: 0.85; stroke-width: 0.6"/>
    </g>
   </g>
   <g id="PathCollection_6">
    <defs>
     <path id="m6966efde2e" d="M 0 5.562149 
C 1.475099 5.562149 2.889981 4.976086 3.933033 3.933033 
C 4.976086 2.889981 5.562149 1.475099 5.562149 0 
C 5.562149 -1.475099 4.976086 -2.889981 3.933033 -3.933033 
C 2.889981 -4.976086 1.475099 -5.562149 0 -5.562149 
C -1.475099 -5.562149 -2.889981 -4.976086 -3.933033 -3.933033 
C -4.976086 -2.889981 -5.562149 -1.475099 -5.562149 0 
C -5.562149 1.475099 -4.976086 2.889981 -3.933033 3.933033 
C -2.889981 4.976086 -1.475099 5.562149 0 5.562149 
z
" style="stroke: #ffffff; stroke-opacity: 0.85; stroke-width: 0.6"/>
    </defs>
    <g clip-path="url(#p08834b11b7)">
     <use xlink:href="#m6966efde2e" x="99.711804" y="164.843968" style="fill: #2ca02c; fill-opacity: 0.85; stroke: #ffffff; stroke-opacity: 0.85; stroke-width: 0.6"/>
    </g>
   </g>
   <g id="PathCollection_7">
    <defs>
     <path id="m809c68a8d1" d="M 0 2 
C 0.530406 2 1.03916 1.789267 1.414214 1.414214 
C 1.789267 1.03916 2 0.530406 2 0 
C 2 -0.530406 1.789267 -1.03916 1.414214 -1.414214 
C 1.03916 -1.789267 0.530406 -2 0 -2 
C -0.530406 -2 -1.03916 -1.789267 -1.414214 -1.414214 
C -1.789267 -1.03916 -2 -0.530406 -2 0 
C -2 0.530406 -1.789267 1.03916 -1.414214 1.414214 
C -1.03916 1.789267 -0.530406 2 0 2 
z
" style="stroke: #ffffff; stroke-opacity: 0.85; stroke-width: 0.6"/>
    </defs>
    <g clip-path="url(#p08834b11b7)">
     <use xlink:href="#m809c68a8d1" x="107.372882" y="168.669588" style="fill: #1f77b4; fill-opacity: 0.85; stroke: #ffffff; stroke-opacity: 0.85; stroke-width: 0.6"/>
    </g>
   </g>
   <g id="PathCollection_8">
    <defs>
     <path id="m5f1e1d4ee7" d="M 0 6.528782 
C 1.731453 6.528782 3.392224 5.840869 4.616546 4.616546 
C 5.840869 3.392224 6.528782 1.731453 6.528782 0 
C 6.528782 -1.731453 5.840869 -3.392224 4.616546 -4.616546 
C 3.392224 -5.840869 1.731453 -6.528782 0 -6.528782 
C -1.731453 -6.528782 -3.392224 -5.840869 -4.616546 -4.616546 
C -5.840869 -3.392224 -6.528782 -1.731453 -6.528782 0 
C -6.528782 1.731453 -5.840869 3.392224 -4.616546 4.616546 
C -3.392224 5.840869 -1.731453 6.528782 0 6.528782 
z
" style="stroke: #ffffff; stroke-opacity: 0.85; stroke-width: 0.6"/>
    </defs>
    <g clip-path="url(#p08834b11b7)">
     <use xlink:href="#m5f1e1d4ee7" x="129.079268" y="187.574376" style="fill: #1f77b4; fill-opacity: 0.85; stroke: #ffffff; stroke-opacity: 0.85; stroke-width: 0.6"/>
    </g>
   </g>
   <g id="PathCollection_9">
    <defs>
     <path id="md69d8e7a4e" d="M 0 5.86302 
C 1.554891 5.86302 3.046307 5.245255 4.145781 4.145781 
C 5.245255 3.046307 5.86302 1.554891 5.86302 0 
C 5.86302 -1.554891 5.245255 -3.046307 4.145781 -4.145781 
C 3.046307 -5.245255 1.554891 -5.86302 0 -5.86302 
C -1.554891 -5.86302 -3.046307 -5.245255 -4.145781 -4.145781 
C -5.245255 -3.046307 -5.86302 -1.554891 -5.86302 0 
C -5.86302 1.554891 -5.245255 3.046307 -4.145781 4.145781 
C -3.046307 5.245255 -1.554891 5.86302 0 5.86302 
z
" style="stroke: #ffffff; stroke-opacity: 0.85; stroke-width: 0.6"/>
    </defs>
    <g clip-path="url(#p08834b11b7)">
     <use xlink:href="#md69d8e7a4e" x="138.017192" y="212.274225" style="fill: #2ca02c; fill-opacity: 0.85; stroke: #ffffff; stroke-opacity: 0.85; stroke-width: 0.6"/>
    </g>
   </g>
   <g id="PathCollection_10">
    <defs>
     <path id="m001b9a6907" d="M 0 3.889087 
C 1.031398 3.889087 2.020691 3.479309 2.75 2.75 
C 3.479309 2.020691 3.889087 1.031398 3.889087 0 
C 3.889087 -1.031398 3.479309 -2.020691 2.75 -2.75 
C 2.020691 -3.479309 1.031398 -3.889087 0 -3.889087 
C -1.031398 -3.889087 -2.020691 -3.479309 -2.75 -2.75 
C -3.479309 -2.020691 -3.889087 -1.031398 -3.889087 0 
C -3.889087 1.031398 -3.479309 2.020691 -2.75 2.75 
C -2.020691 3.479309 -1.031398 3.889087 0 3.889087 
z
" style="stroke: #ffffff; stroke-opacity: 0.85; stroke-width: 0.6"/>
    </defs>
    <g clip-path="url(#p08834b11b7)">
     <use xlink:href="#m001b9a6907" x="161.000425" y="154.946901" style="fill: #1f77b4; fill-opacity: 0.85; stroke: #ffffff; stroke-opacity: 0.85; stroke-width: 0.6"/>
    </g>
   </g>
   <g id="PathCollection_11">
    <defs>
     <path id="ma6c6f47140" d="M 0 3.976493 
C 1.054578 3.976493 2.066106 3.557505 2.811805 2.811805 
C 3.557505 2.066106 3.976493 1.054578 3.976493 0 
C 3.976493 -1.054578 3.557505 -2.066106 2.811805 -2.811805 
C 2.066106 -3.557505 1.054578 -3.976493 0 -3.976493 
C -1.054578 -3.976493 -2.066106 -3.557505 -2.811805 -2.811805 
C -3.557505 -2.066106 -3.976493 -1.054578 -3.976493 0 
C -3.976493 1.054578 -3.557505 2.066106 -2.811805 2.811805 
C -2.066106 3.557505 -1.054578 3.976493 0 3.976493 
z
" style="stroke: #ffffff; stroke-opacity: 0.85; stroke-width: 0.6"/>
    </defs>
    <g clip-path="url(#p08834b11b7)">
     <use xlink:href="#ma6c6f47140" x="164.830963" y="219.404117" style="fill: #d62728; fill-opacity: 0.85; stroke: #ffffff; stroke-opacity: 0.85; stroke-width: 0.6"/>
    </g>
   </g>
   <g id="PathCollection_12">
    <defs>
     <path id="m492807d1ab" d="M 0 9.082951 
C 2.408827 9.082951 4.719319 8.125914 6.422616 6.422616 
C 8.125914 4.719319 9.082951 2.408827 9.082951 0 
C 9.082951 -2.408827 8.125914 -4.719319 6.422616 -6.422616 
C 4.719319 -8.125914 2.408827 -9.082951 0 -9.082951 
C -2.408827 -9.082951 -4.719319 -8.125914 -6.422616 -6.422616 
C -8.125914 -4.719319 -9.082951 -2.408827 -9.082951 0 
C -9.082951 2.408827 -8.125914 4.719319 -6.422616 6.422616 
C -4.719319 8.125914 -2.408827 9.082951 0 9.082951 
z
" style="stroke: #ffffff; stroke-opacity: 0.85; stroke-width: 0.6"/>
    </defs>
    <g clip-path="url(#p08834b11b7)">
     <use xlink:href="#m492807d1ab" x="173.768887" y="345.703636" style="fill: #d62728; fill-opacity: 0.85; stroke: #ffffff; stroke-opacity: 0.85; stroke-width: 0.6"/>
    </g>
   </g>
   <g id="PathCollection_13">
    <defs>
     <path id="m580c230004" d="M 0 7.035624 
C 1.865869 7.035624 3.655568 6.294306 4.974937 4.974937 
C 6.294306 3.655568 7.035624 1.865869 7.035624 0 
C 7.035624 -1.865869 6.294306 -3.655568 4.974937 -4.974937 
C 3.655568 -6.294306 1.865869 -7.035624 0 -7.035624 
C -1.865869 -7.035624 -3.655568 -6.294306 -4.974937 -4.974937 
C -6.294306 -3.655568 -7.035624 -1.865869 -7.035624 0 
C -7.035624 1.865869 -6.294306 3.655568 -4.974937 4.974937 
C -3.655568 6.294306 -1.865869 7.035624 0 7.035624 
z
" style="stroke: #ffffff; stroke-opacity: 0.85; stroke-width: 0.6"/>
    </defs>
    <g clip-path="url(#p08834b11b7)">
     <use xlink:href="#m580c230004" x="180.153118" y="207.392069" style="fill: #d62728; fill-opacity: 0.85; stroke: #ffffff; stroke-opacity: 0.85; stroke-width: 0.6"/>
    </g>
   </g>
   <g id="PathCollection_14">
    <defs>
     <path id="m5533e34fc1" d="M 0 7.416198 
C 1.966799 7.416198 3.853307 6.634781 5.244044 5.244044 
C 6.634781 3.853307 7.416198 1.966799 7.416198 0 
C 7.416198 -1.966799 6.634781 -3.853307 5.244044 -5.244044 
C 3.853307 -6.634781 1.966799 -7.416198 0 -7.416198 
C -1.966799 -7.416198 -3.853307 -6.634781 -5.244044 -5.244044 
C -6.634781 -3.853307 -7.416198 -1.966799 -7.416198 0 
C -7.416198 1.966799 -6.634781 3.853307 -5.244044 5.244044 
C -3.853307 6.634781 -1.966799 7.416198 0 7.416198 
z
" style="stroke: #ffffff; stroke-opacity: 0.85; stroke-width: 0.6"/>
    </defs>
    <g clip-path="url(#p08834b11b7)">
     <use xlink:href="#m5533e34fc1" x="181.429965" y="41.376364" style="fill: #2ca02c; fill-opacity: 0.85; stroke: #ffffff; stroke-opacity: 0.85; stroke-width: 0.6"/>
    </g>
   </g>
   <g id="PathCollection_15">
    <defs>
     <path id="mf48bba6fcc" d="M 0 4.145781 
C 1.099474 4.145781 2.154064 3.708955 2.93151 2.93151 
C 3.708955 2.154064 4.145781 1.099474 4.145781 0 
C 4.145781 -1.099474 3.708955 -2.154064 2.93151 -2.93151 
C 2.154064 -3.708955 1.099474 -4.145781 0 -4.145781 
C -1.099474 -4.145781 -2.154064 -3.708955 -2.93151 -2.93151 
C -3.708955 -2.154064 -4.145781 -1.099474 -4.145781 0 
C -4.145781 1.099474 -3.708955 2.154064 -2.93151 2.93151 
C -2.154064 3.708955 -1.099474 4.145781 0 4.145781 
z
" style="stroke: #ffffff; stroke-opacity: 0.85; stroke-width: 0.6"/>
    </defs>
    <g clip-path="url(#p08834b11b7)">
     <use xlink:href="#mf48bba6fcc" x="187.814196" y="181.884162" style="fill: #2ca02c; fill-opacity: 0.85; stroke: #ffffff; stroke-opacity: 0.85; stroke-width: 0.6"/>
    </g>
   </g>
   <g id="PathCollection_16">
    <defs>
     <path id="m48eeff65f8" d="M 0 7.866066 
C 2.086105 7.866066 4.08705 7.037248 5.562149 5.562149 
C 7.037248 4.08705 7.866066 2.086105 7.866066 0 
C 7.866066 -2.086105 7.037248 -4.08705 5.562149 -5.562149 
C 4.08705 -7.037248 2.086105 -7.866066 0 -7.866066 
C -2.086105 -7.866066 -4.08705 -7.037248 -5.562149 -5.562149 
C -7.037248 -4.08705 -7.866066 -2.086105 -7.866066 0 
C -7.866066 2.086105 -7.037248 4.08705 -5.562149 5.562149 
C -4.08705 7.037248 -2.086105 7.866066 0 7.866066 
z
" style="stroke: #ffffff; stroke-opacity: 0.85; stroke-width: 0.6"/>
    </defs>
    <g clip-path="url(#p08834b11b7)">
     <use xlink:href="#m48eeff65f8" x="223.565891" y="158.376847" style="fill: #2ca02c; fill-opacity: 0.85; stroke: #ffffff; stroke-opacity: 0.85; stroke-width: 0.6"/>
    </g>
   </g>
   <g id="PathCollection_17">
    <defs>
     <path id="m2fc32cfbe5" d="M 0 6.422616 
C 1.703298 6.422616 3.337062 5.745889 4.541476 4.541476 
C 5.745889 3.337062 6.422616 1.703298 6.422616 0 
C 6.422616 -1.703298 5.745889 -3.337062 4.541476 -4.541476 
C 3.337062 -5.745889 1.703298 -6.422616 0 -6.422616 
C -1.703298 -6.422616 -3.337062 -5.745889 -4.541476 -4.541476 
C -5.745889 -3.337062 -6.422616 -1.703298 -6.422616 0 
C -6.422616 1.703298 -5.745889 3.337062 -4.541476 4.541476 
C -3.337062 5.745889 -1.703298 6.422616 0 6.422616 
z
" style="stroke: #ffffff; stroke-opacity: 0.85; stroke-width: 0.6"/>
    </defs>
    <g clip-path="url(#p08834b11b7)">
     <use xlink:href="#m2fc32cfbe5" x="237.6112" y="160.766804" style="fill: #1f77b4; fill-opacity: 0.85; stroke: #ffffff; stroke-opacity: 0.85; stroke-width: 0.6"/>
    </g>
   </g>
   <g id="PathCollection_18">
    <defs>
     <path id="m3e6f9e505b" d="M 0 6.422616 
C 1.703298 6.422616 3.337062 5.745889 4.541476 4.541476 
C 5.745889 3.337062 6.422616 1.703298 6.422616 0 
C 6.422616 -1.703298 5.745889 -3.337062 4.541476 -4.541476 
C 3.337062 -5.745889 1.703298 -6.422616 0 -6.422616 
C -1.703298 -6.422616 -3.337062 -5.745889 -4.541476 -4.541476 
C -5.745889 -3.337062 -6.422616 -1.703298 -6.422616 0 
C -6.422616 1.703298 -5.745889 3.337062 -4.541476 4.541476 
C -3.337062 5.745889 -1.703298 6.422616 0 6.422616 
z
" style="stroke: #ffffff; stroke-opacity: 0.85; stroke-width: 0.6"/>
    </defs>
    <g clip-path="url(#p08834b11b7)">
     <use xlink:href="#m3e6f9e505b" x="242.718585" y="131.039167" style="fill: #2ca02c; fill-opacity: 0.85; stroke: #ffffff; stroke-opacity: 0.85; stroke-width: 0.6"/>
    </g>
   </g>
   <g id="PathCollection_19">
    <defs>
     <path id="m088e767737" d="M 0 2.03101 
C 0.53863 2.03101 1.055272 1.81701 1.436141 1.436141 
C 1.81701 1.055272 2.03101 0.53863 2.03101 0 
C 2.03101 -0.53863 1.81701 -1.055272 1.436141 -1.436141 
C 1.055272 -1.81701 0.53863 -2.03101 0 -2.03101 
C -0.53863 -2.03101 -1.055272 -1.81701 -1.436141 -1.436141 
C -1.81701 -1.055272 -2.03101 -0.53863 -2.03101 0 
C -2.03101 0.53863 -1.81701 1.055272 -1.436141 1.436141 
C -1.055272 1.81701 -0.53863 2.03101 0 2.03101 
z
" style="stroke: #ffffff; stroke-opacity: 0.85; stroke-width: 0.6"/>
    </defs>
    <g clip-path="url(#p08834b11b7)">
     <use xlink:href="#m088e767737" x="268.25551" y="183.680367" style="fill: #2ca02c; fill-opacity: 0.85; stroke: #ffffff; stroke-opacity: 0.85; stroke-width: 0.6"/>
    </g>
   </g>
   <g id="PathCollection_20">
    <defs>
     <path id="m731a2f4a95" d="M 0 5.744563 
C 1.523476 5.744563 2.984759 5.139279 4.062019 4.062019 
C 5.139279 2.984759 5.744563 1.523476 5.744563 0 
C 5.744563 -1.523476 5.139279 -2.984759 4.062019 -4.062019 
C 2.984759 -5.139279 1.523476 -5.744563 0 -5.744563 
C -1.523476 -5.744563 -2.984759 -5.139279 -4.062019 -4.062019 
C -5.139279 -2.984759 -5.744563 -1.523476 -5.744563 0 
C -5.744563 1.523476 -5.139279 2.984759 -4.062019 4.062019 
C -2.984759 5.139279 -1.523476 5.744563 0 5.744563 
z
" style="stroke: #ffffff; stroke-opacity: 0.85; stroke-width: 0.6"/>
    </defs>
    <g clip-path="url(#p08834b11b7)">
     <use xlink:href="#m731a2f4a95" x="295.069281" y="211.142755" style="fill: #d62728; fill-opacity: 0.85; stroke: #ffffff; stroke-opacity: 0.85; stroke-width: 0.6"/>
    </g>
   </g>
   <g id="PathCollection_21">
    <g clip-path="url(#p08834b11b7)">
     <use xlink:href="#m809c68a8d1" x="296.346128" y="169.060099" style="fill: #1f77b4; fill-opacity: 0.85; stroke: #ffffff; stroke-opacity: 0.85; stroke-width: 0.6"/>
    </g>
   </g>
   <g id="PathCollection_22">
    <defs>
     <path id="m463bc4113e" d="M 0 8.696264 
C 2.306276 8.696264 4.518403 7.77997 6.149187 6.149187 
C 7.77997 4.518403 8.696264 2.306276 8.696264 0 
C 8.696264 -2.306276 7.77997 -4.518403 6.149187 -6.149187 
C 4.518403 -7.77997 2.306276 -8.696264 0 -8.696264 
C -2.306276 -8.696264 -4.518403 -7.77997 -6.149187 -6.149187 
C -7.77997 -4.518403 -8.696264 -2.306276 -8.696264 0 
C -8.696264 2.306276 -7.77997 4.518403 -6.149187 6.149187 
C -4.518403 7.77997 -2.306276 8.696264 0 8.696264 
z
" style="stroke: #ffffff; stroke-opacity: 0.85; stroke-width: 0.6"/>
    </defs>
    <g clip-path="url(#p08834b11b7)">
     <use xlink:href="#m463bc4113e" x="304.007205" y="193.382219" style="fill: #1f77b4; fill-opacity: 0.85; stroke: #ffffff; stroke-opacity: 0.85; stroke-width: 0.6"/>
    </g>
   </g>
   <g id="PathCollection_23">
    <g clip-path="url(#p08834b11b7)">
     <use xlink:href="#m088e767737" x="315.498821" y="150.645225" style="fill: #2ca02c; fill-opacity: 0.85; stroke: #ffffff; stroke-opacity: 0.85; stroke-width: 0.6"/>
    </g>
   </g>
   <g id="PathCollection_24">
    <defs>
     <path id="m8b1170e0db" d="M 0 3.517812 
C 0.932935 3.517812 1.827784 3.147153 2.487469 2.487469 
C 3.147153 1.827784 3.517812 0.932935 3.517812 0 
C 3.517812 -0.932935 3.147153 -1.827784 2.487469 -2.487469 
C 1.827784 -3.147153 0.932935 -3.517812 0 -3.517812 
C -0.932935 -3.517812 -1.827784 -3.147153 -2.487469 -2.487469 
C -3.147153 -1.827784 -3.517812 -0.932935 -3.517812 0 
C -3.517812 0.932935 -3.147153 1.827784 -2.487469 2.487469 
C -1.827784 3.147153 -0.932935 3.517812 0 3.517812 
z
" style="stroke: #ffffff; stroke-opacity: 0.85; stroke-width: 0.6"/>
    </defs>
    <g clip-path="url(#p08834b11b7)">
     <use xlink:href="#m8b1170e0db" x="324.436745" y="209.680276" style="fill: #d62728; fill-opacity: 0.85; stroke: #ffffff; stroke-opacity: 0.85; stroke-width: 0.6"/>
    </g>
   </g>
   <g id="PathCollection_25">
    <defs>
     <path id="m23a7b87074" d="M 0 2 
C 0.530406 2 1.03916 1.789267 1.414214 1.414214 
C 1.789267 1.03916 2 0.530406 2 0 
C 2 -0.530406 1.789267 -1.03916 1.414214 -1.414214 
C 1.03916 -1.789267 0.530406 -2 0 -2 
C -0.530406 -2 -1.03916 -1.789267 -1.414214 -1.414214 
C -1.789267 -1.03916 -2 -0.530406 -2 0 
C -2 0.530406 -1.789267 1.03916 -1.414214 1.414214 
C -1.03916 1.789267 -0.530406 2 0 2 
z
" style="stroke: #ffffff; stroke-opacity: 0.85; stroke-width: 0.6"/>
    </defs>
    <g clip-path="url(#p08834b11b7)">
     <use xlink:href="#m23a7b87074" x="325.713592" y="210.769659" style="fill: #2ca02c; fill-opacity: 0.85; stroke: #ffffff; stroke-opacity: 0.85; stroke-width: 0.6"/>
    </g>
   </g>
   <g id="PathCollection_26">
    <defs>
     <path id="maee6798571" d="M 0 3.357827 
C 0.890506 3.357827 1.744659 3.004025 2.374342 2.374342 
C 3.004025 1.744659 3.357827 0.890506 3.357827 0 
C 3.357827 -0.890506 3.004025 -1.744659 2.374342 -2.374342 
C 1.744659 -3.004025 0.890506 -3.357827 0 -3.357827 
C -0.890506 -3.357827 -1.744659 -3.004025 -2.374342 -2.374342 
C -3.004025 -1.744659 -3.357827 -0.890506 -3.357827 0 
C -3.357827 0.890506 -3.004025 1.744659 -2.374342 2.374342 
C -1.744659 3.004025 -0.890506 3.357827 0 3.357827 
z
" style="stroke: #ffffff; stroke-opacity: 0.85; stroke-width: 0.6"/>
    </defs>
    <g clip-path="url(#p08834b11b7)">
     <use xlink:href="#maee6798571" x="333.374669" y="165.193205" style="fill: #1f77b4; fill-opacity: 0.85; stroke: #ffffff; stroke-opacity: 0.85; stroke-width: 0.6"/>
    </g>
   </g>
   <g id="PathCollection_27">
    <defs>
     <path id="m05895f4c08" d="M 0 4.974937 
C 1.319369 4.974937 2.584877 4.450746 3.517812 3.517812 
C 4.450746 2.584877 4.974937 1.319369 4.974937 0 
C 4.974937 -1.319369 4.450746 -2.584877 3.517812 -3.517812 
C 2.584877 -4.450746 1.319369 -4.974937 0 -4.974937 
C -1.319369 -4.974937 -2.584877 -4.450746 -3.517812 -3.517812 
C -4.450746 -2.584877 -4.974937 -1.319369 -4.974937 0 
C -4.974937 1.319369 -4.450746 2.584877 -3.517812 3.517812 
C -2.584877 4.450746 -1.319369 4.974937 0 4.974937 
z
" style="stroke: #ffffff; stroke-opacity: 0.85; stroke-width: 0.6"/>
    </defs>
    <g clip-path="url(#p08834b11b7)">
     <use xlink:href="#m05895f4c08" x="398.493828" y="149.866116" style="fill: #1f77b4; fill-opacity: 0.85; stroke: #ffffff; stroke-opacity: 0.85; stroke-width: 0.6"/>
    </g>
   </g>
   <g id="PathCollection_28">
    <g clip-path="url(#p08834b11b7)">
     <use xlink:href="#m809c68a8d1" x="402.324367" y="159.020792" style="fill: #1f77b4; fill-opacity: 0.85; stroke: #ffffff; stroke-opacity: 0.85; stroke-width: 0.6"/>
    </g>
   </g>
   <g id="PathCollection_29">
    <defs>
     <path id="me6634793a2" d="M 0 4.541476 
C 1.204413 4.541476 2.359659 4.062957 3.211308 3.211308 
C 4.062957 2.359659 4.541476 1.204413 4.541476 0 
C 4.541476 -1.204413 4.062957 -2.359659 3.211308 -3.211308 
C 2.359659 -4.062957 1.204413 -4.541476 0 -4.541476 
C -1.204413 -4.541476 -2.359659 -4.062957 -3.211308 -3.211308 
C -4.062957 -2.359659 -4.541476 -1.204413 -4.541476 0 
C -4.541476 1.204413 -4.062957 2.359659 -3.211308 3.211308 
C -2.359659 4.062957 -1.204413 4.541476 0 4.541476 
z
" style="stroke: #ffffff; stroke-opacity: 0.85; stroke-width: 0.6"/>
    </defs>
    <g clip-path="url(#p08834b11b7)">
     <use xlink:href="#me6634793a2" x="404.878059" y="167.650545" style="fill: #2ca02c; fill-opacity: 0.85; stroke: #ffffff; stroke-opacity: 0.85; stroke-width: 0.6"/>
    </g>
   </g>
   <g id="PathCollection_30">
    <defs>
     <path id="mca9b1a0652" d="M 0 7.689278 
C 2.03922 7.689278 3.995194 6.879087 5.437141 5.437141 
C 6.879087 3.995194 7.689278 2.03922 7.689278 0 
C 7.689278 -2.03922 6.879087 -3.995194 5.437141 -5.437141 
C 3.995194 -6.879087 2.03922 -7.689278 0 -7.689278 
C -2.03922 -7.689278 -3.995194 -6.879087 -5.437141 -5.437141 
C -6.879087 -3.995194 -7.689278 -2.03922 -7.689278 0 
C -7.689278 2.03922 -6.879087 3.995194 -5.437141 5.437141 
C -3.995194 6.879087 -2.03922 7.689278 0 7.689278 
z
" style="stroke: #ffffff; stroke-opacity: 0.85; stroke-width: 0.6"/>
    </defs>
    <g clip-path="url(#p08834b11b7)">
     <use xlink:href="#mca9b1a0652" x="416.369676" y="245.794821" style="fill: #d62728; fill-opacity: 0.85; stroke: #ffffff; stroke-opacity: 0.85; stroke-width: 0.6"/>
    </g>
   </g>
   <g id="PathCollection_31">
    <defs>
     <path id="m23ffac08b5" d="M 0 2.403123 
C 0.637316 2.403123 1.248614 2.149915 1.699265 1.699265 
C 2.149915 1.248614 2.403123 0.637316 2.403123 0 
C 2.403123 -0.637316 2.149915 -1.248614 1.699265 -1.699265 
C 1.248614 -2.149915 0.637316 -2.403123 0 -2.403123 
C -0.637316 -2.403123 -1.248614 -2.149915 -1.699265 -1.699265 
C -2.149915 -1.248614 -2.403123 -0.637316 -2.403123 0 
C -2.403123 0.637316 -2.149915 1.248614 -1.699265 1.699265 
C -1.248614 2.149915 -0.637316 2.403123 0 2.403123 
z
" style="stroke: #ffffff; stroke-opacity: 0.85; stroke-width: 0.6"/>
    </defs>
    <g clip-path="url(#p08834b11b7)">
     <use xlink:href="#m23ffac08b5" x="438.076062" y="152.479871" style="fill: #1f77b4; fill-opacity: 0.85; stroke: #ffffff; stroke-opacity: 0.85; stroke-width: 0.6"/>
    </g>
   </g>
   <g id="PathCollection_32">
    <defs>
     <path id="m0bb68661c6" d="M 0 7.689278 
C 2.03922 7.689278 3.995194 6.879087 5.437141 5.437141 
C 6.879087 3.995194 7.689278 2.03922 7.689278 0 
C 7.689278 -2.03922 6.879087 -3.995194 5.437141 -5.437141 
C 3.995194 -6.879087 2.03922 -7.689278 0 -7.689278 
C -2.03922 -7.689278 -3.995194 -6.879087 -5.437141 -5.437141 
C -6.879087 -3.995194 -7.689278 -2.03922 -7.689278 0 
C -7.689278 2.03922 -6.879087 3.995194 -5.437141 5.437141 
C -3.995194 6.879087 -2.03922 7.689278 0 7.689278 
z
" style="stroke: #ffffff; stroke-opacity: 0.85; stroke-width: 0.6"/>
    </defs>
    <g clip-path="url(#p08834b11b7)">
     <use xlink:href="#m0bb68661c6" x="441.906601" y="203.272441" style="fill: #2ca02c; fill-opacity: 0.85; stroke: #ffffff; stroke-opacity: 0.85; stroke-width: 0.6"/>
    </g>
   </g>
   <g id="PathCollection_33">
    <g clip-path="url(#p08834b11b7)">
     <use xlink:href="#m23a7b87074" x="459.782448" y="229.573558" style="fill: #2ca02c; fill-opacity: 0.85; stroke: #ffffff; stroke-opacity: 0.85; stroke-width: 0.6"/>
    </g>
   </g>
   <g id="PathCollection_34">
    <g clip-path="url(#p08834b11b7)">
     <use xlink:href="#m23a7b87074" x="521.071069" y="205.790796" style="fill: #2ca02c; fill-opacity: 0.85; stroke: #ffffff; stroke-opacity: 0.85; stroke-width: 0.6"/>
    </g>
   </g>
   <g id="PathCollection_35">
    <defs>
     <path id="md7145129c5" d="M 0 4.227884 
C 1.121248 4.227884 2.196723 3.782407 2.989565 2.989565 
C 3.782407 2.196723 4.227884 1.121248 4.227884 0 
C 4.227884 -1.121248 3.782407 -2.196723 2.989565 -2.989565 
C 2.196723 -3.782407 1.121248 -4.227884 0 -4.227884 
C -1.121248 -4.227884 -2.196723 -3.782407 -2.989565 -2.989565 
C -3.782407 -2.196723 -4.227884 -1.121248 -4.227884 0 
C -4.227884 1.121248 -3.782407 2.196723 -2.989565 2.989565 
C -2.196723 3.782407 -1.121248 4.227884 0 4.227884 
z
" style="stroke: #ffffff; stroke-opacity: 0.85; stroke-width: 0.6"/>
    </defs>
    <g clip-path="url(#p08834b11b7)">
     <use xlink:href="#md7145129c5" x="536.393224" y="187.423791" style="fill: #1f77b4; fill-opacity: 0.85; stroke: #ffffff; stroke-opacity: 0.85; stroke-width: 0.6"/>
    </g>
   </g>
   <g id="PathCollection_36">
    <g clip-path="url(#p08834b11b7)">
     <use xlink:href="#m809c68a8d1" x="540.223763" y="179.704833" style="fill: #1f77b4; fill-opacity: 0.85; stroke: #ffffff; stroke-opacity: 0.85; stroke-width: 0.6"/>
    </g>
   </g>
   <g id="PathCollection_37">
    <defs>
     <path id="m2debf45029" d="M 0 2.622022 
C 0.695368 2.622022 1.36235 2.345749 1.85405 1.85405 
C 2.345749 1.36235 2.622022 0.695368 2.622022 0 
C 2.622022 -0.695368 2.345749 -1.36235 1.85405 -1.85405 
C 1.36235 -2.345749 0.695368 -2.622022 0 -2.622022 
C -0.695368 -2.622022 -1.36235 -2.345749 -1.85405 -1.85405 
C -2.345749 -1.36235 -2.622022 -0.695368 -2.622022 0 
C -2.622022 0.695368 -2.345749 1.36235 -1.85405 1.85405 
C -1.36235 2.345749 -0.695368 2.622022 0 2.622022 
z
" style="stroke: #ffffff; stroke-opacity: 0.85; stroke-width: 0.6"/>
    </defs>
    <g clip-path="url(#p08834b11b7)">
     <use xlink:href="#m2debf45029" x="546.607994" y="218.722959" style="fill: #d62728; fill-opacity: 0.85; stroke: #ffffff; stroke-opacity: 0.85; stroke-width: 0.6"/>
    </g>
   </g>
   <g id="PathCollection_38">
    <defs>
     <path id="m2e1412c566" d="M 0 2.622022 
C 0.695368 2.622022 1.36235 2.345749 1.85405 1.85405 
C 2.345749 1.36235 2.622022 0.695368 2.622022 0 
C 2.622022 -0.695368 2.345749 -1.36235 1.85405 -1.85405 
C 1.36235 -2.345749 0.695368 -2.622022 0 -2.622022 
C -0.695368 -2.622022 -1.36235 -2.345749 -1.85405 -1.85405 
C -2.345749 -1.36235 -2.622022 -0.695368 -2.622022 0 
C -2.622022 0.695368 -2.345749 1.36235 -1.85405 1.85405 
C -1.36235 2.345749 -0.695368 2.622022 0 2.622022 
z
" style="stroke: #ffffff; stroke-opacity: 0.85; stroke-width: 0.6"/>
    </defs>
    <g clip-path="url(#p08834b11b7)">
     <use xlink:href="#m2e1412c566" x="547.88484" y="126.376719" style="fill: #2ca02c; fill-opacity: 0.85; stroke: #ffffff; stroke-opacity: 0.85; stroke-width: 0.6"/>
    </g>
   </g>
   <g id="PathCollection_39">
    <defs>
     <path id="m9bea75d7fb" d="M 0 7.599342 
C 2.015369 7.599342 3.948465 6.798627 5.373546 5.373546 
C 6.798627 3.948465 7.599342 2.015369 7.599342 0 
C 7.599342 -2.015369 6.798627 -3.948465 5.373546 -5.373546 
C 3.948465 -6.798627 2.015369 -7.599342 0 -7.599342 
C -2.015369 -7.599342 -3.948465 -6.798627 -5.373546 -5.373546 
C -6.798627 -3.948465 -7.599342 -2.015369 -7.599342 0 
C -7.599342 2.015369 -6.798627 3.948465 -5.373546 5.373546 
C -3.948465 6.798627 -2.015369 7.599342 0 7.599342 
z
" style="stroke: #ffffff; stroke-opacity: 0.85; stroke-width: 0.6"/>
    </defs>
    <g clip-path="url(#p08834b11b7)">
     <use xlink:href="#m9bea75d7fb" x="554.269071" y="165.212822" style="fill: #1f77b4; fill-opacity: 0.85; stroke: #ffffff; stroke-opacity: 0.85; stroke-width: 0.6"/>
    </g>
   </g>
   <g id="PathCollection_40">
    <g clip-path="url(#p08834b11b7)">
     <use xlink:href="#m809c68a8d1" x="555.545918" y="169.372223" style="fill: #1f77b4; fill-opacity: 0.85; stroke: #ffffff; stroke-opacity: 0.85; stroke-width: 0.6"/>
    </g>
   </g>
   <g id="PathCollection_41">
    <defs>
     <path id="m0ce7249653" d="M 0 2 
C 0.530406 2 1.03916 1.789267 1.414214 1.414214 
C 1.789267 1.03916 2 0.530406 2 0 
C 2 -0.530406 1.789267 -1.03916 1.414214 -1.414214 
C 1.03916 -1.789267 0.530406 -2 0 -2 
C -0.530406 -2 -1.03916 -1.789267 -1.414214 -1.414214 
C -1.789267 -1.03916 -2 -0.530406 -2 0 
C -2 0.530406 -1.789267 1.03916 -1.414214 1.414214 
C -1.03916 1.789267 -0.530406 2 0 2 
z
" style="stroke: #ffffff; stroke-opacity: 0.85; stroke-width: 0.6"/>
    </defs>
    <g clip-path="url(#p08834b11b7)">
     <use xlink:href="#m0ce7249653" x="558.09961" y="200.538673" style="fill: #d62728; fill-opacity: 0.85; stroke: #ffffff; stroke-opacity: 0.85; stroke-width: 0.6"/>
    </g>
   </g>
   <g id="PathCollection_42">
    <g clip-path="url(#p08834b11b7)">
     <use xlink:href="#m088e767737" x="563.206995" y="196.389602" style="fill: #2ca02c; fill-opacity: 0.85; stroke: #ffffff; stroke-opacity: 0.85; stroke-width: 0.6"/>
    </g>
   </g>
   <g id="PathCollection_43">
    <defs>
     <path id="m4a74ec0da4" d="M 0 4.062019 
C 1.07726 4.062019 2.110543 3.634019 2.872281 2.872281 
C 3.634019 2.110543 4.062019 1.07726 4.062019 0 
C 4.062019 -1.07726 3.634019 -2.110543 2.872281 -2.872281 
C 2.110543 -3.634019 1.07726 -4.062019 0 -4.062019 
C -1.07726 -4.062019 -2.110543 -3.634019 -2.872281 -2.872281 
C -3.634019 -2.110543 -4.062019 -1.07726 -4.062019 0 
C -4.062019 1.07726 -3.634019 2.110543 -2.872281 2.872281 
C -2.110543 3.634019 -1.07726 4.062019 0 4.062019 
z
" style="stroke: #ffffff; stroke-opacity: 0.85; stroke-width: 0.6"/>
    </defs>
    <g clip-path="url(#p08834b11b7)">
     <use xlink:href="#m4a74ec0da4" x="586.190228" y="192.611538" style="fill: #1f77b4; fill-opacity: 0.85; stroke: #ffffff; stroke-opacity: 0.85; stroke-width: 0.6"/>
    </g>
   </g>
   <g id="PathCollection_44">
    <defs>
     <path id="m6c9bc2f362" d="M 0 2.75 
C 0.729309 2.75 1.428845 2.460243 1.944544 1.944544 
C 2.460243 1.428845 2.75 0.729309 2.75 0 
C 2.75 -0.729309 2.460243 -1.428845 1.944544 -1.944544 
C 1.428845 -2.460243 0.729309 -2.75 0 -2.75 
C -0.729309 -2.75 -1.428845 -2.460243 -1.944544 -1.944544 
C -2.460243 -1.428845 -2.75 -0.729309 -2.75 0 
C -2.75 0.729309 -2.460243 1.428845 -1.944544 1.944544 
C -1.428845 2.460243 -0.729309 2.75 0 2.75 
z
" style="stroke: #ffffff; stroke-opacity: 0.85; stroke-width: 0.6"/>
    </defs>
    <g clip-path="url(#p08834b11b7)">
     <use xlink:href="#m6c9bc2f362" x="675.569466" y="187.905352" style="fill: #1f77b4; fill-opacity: 0.85; stroke: #ffffff; stroke-opacity: 0.85; stroke-width: 0.6"/>
    </g>
   </g>
   <g id="PathCollection_45">
    <defs>
     <path id="mb2ad875146" d="M 0 2.75 
C 0.729309 2.75 1.428845 2.460243 1.944544 1.944544 
C 2.460243 1.428845 2.75 0.729309 2.75 0 
C 2.75 -0.729309 2.460243 -1.428845 1.944544 -1.944544 
C 1.428845 -2.460243 0.729309 -2.75 0 -2.75 
C -0.729309 -2.75 -1.428845 -2.460243 -1.944544 -1.944544 
C -2.460243 -1.428845 -2.75 -0.729309 -2.75 0 
C -2.75 0.729309 -2.460243 1.428845 -1.944544 1.944544 
C -1.428845 2.460243 -0.729309 2.75 0 2.75 
z
" style="stroke: #ffffff; stroke-opacity: 0.85; stroke-width: 0.6"/>
    </defs>
    <g clip-path="url(#p08834b11b7)">
     <use xlink:href="#mb2ad875146" x="684.507389" y="157.153478" style="fill: #2ca02c; fill-opacity: 0.85; stroke: #ffffff; stroke-opacity: 0.85; stroke-width: 0.6"/>
    </g>
   </g>
   <g id="PathCollection_46">
    <defs>
     <path id="mb8526e6548" d="M 0 6.937218 
C 1.839772 6.937218 3.604439 6.206269 4.905354 4.905354 
C 6.206269 3.604439 6.937218 1.839772 6.937218 0 
C 6.937218 -1.839772 6.206269 -3.604439 4.905354 -4.905354 
C 3.604439 -6.206269 1.839772 -6.937218 0 -6.937218 
C -1.839772 -6.937218 -3.604439 -6.206269 -4.905354 -4.905354 
C -6.206269 -3.604439 -6.937218 -1.839772 -6.937218 0 
C -6.937218 1.839772 -6.206269 3.604439 -4.905354 4.905354 
C -3.604439 6.206269 -1.839772 6.937218 0 6.937218 
z
" style="stroke: #ffffff; stroke-opacity: 0.85; stroke-width: 0.6"/>
    </defs>
    <g clip-path="url(#p08834b11b7)">
     <use xlink:href="#mb8526e6548" x="759.841319" y="179.246392" style="fill: #1f77b4; fill-opacity: 0.85; stroke: #ffffff; stroke-opacity: 0.85; stroke-width: 0.6"/>
    </g>
   </g>
   <g id="text_15">
    <!-- S&amp;P 500 Reaction to Tariff Announcements -->
    <g transform="translate(291.521777 20.16) scale(0.12 -0.12)">
     <defs>
      <path id="DejaVuSans-26" d="M 1556 2509 
Q 1272 2256 1139 2004 
Q 1006 1753 1006 1478 
Q 1006 1022 1337 719 
Q 1669 416 2169 416 
Q 2466 416 2725 514 
Q 2984 613 3213 813 
L 1556 2509 
z
M 1997 2859 
L 3584 1234 
Q 3769 1513 3872 1830 
Q 3975 2147 3994 2503 
L 4575 2503 
Q 4538 2091 4375 1687 
Q 4213 1284 3922 891 
L 4794 0 
L 4006 0 
L 3559 459 
Q 3234 181 2878 45 
Q 2522 -91 2113 -91 
Q 1359 -91 881 339 
Q 403 769 403 1441 
Q 403 1841 612 2192 
Q 822 2544 1241 2853 
Q 1091 3050 1012 3245 
Q 934 3441 934 3628 
Q 934 4134 1281 4442 
Q 1628 4750 2203 4750 
Q 2463 4750 2720 4694 
Q 2978 4638 3244 4525 
L 3244 3956 
Q 2972 4103 2725 4179 
Q 2478 4256 2266 4256 
Q 1938 4256 1733 4082 
Q 1528 3909 1528 3634 
Q 1528 3475 1620 3314 
Q 1713 3153 1997 2859 
z
" transform="scale(0.015625)"/>
      <path id="DejaVuSans-50" d="M 1259 4147 
L 1259 2394 
L 2053 2394 
Q 2494 2394 2734 2622 
Q 2975 2850 2975 3272 
Q 2975 3691 2734 3919 
Q 2494 4147 2053 4147 
L 1259 4147 
z
M 628 4666 
L 2053 4666 
Q 2838 4666 3239 4311 
Q 3641 3956 3641 3272 
Q 3641 2581 3239 2228 
Q 2838 1875 2053 1875 
L 1259 1875 
L 1259 0 
L 628 0 
L 628 4666 
z
" transform="scale(0.015625)"/>
      <path id="DejaVuSans-52" d="M 2841 2188 
Q 3044 2119 3236 1894 
Q 3428 1669 3622 1275 
L 4263 0 
L 3584 0 
L 2988 1197 
Q 2756 1666 2539 1819 
Q 2322 1972 1947 1972 
L 1259 1972 
L 1259 0 
L 628 0 
L 628 4666 
L 2053 4666 
Q 2853 4666 3247 4331 
Q 3641 3997 3641 3322 
Q 3641 2881 3436 2590 
Q 3231 2300 2841 2188 
z
M 1259 4147 
L 1259 2491 
L 2053 2491 
Q 2509 2491 2742 2702 
Q 2975 2913 2975 3322 
Q 2975 3731 2742 3939 
Q 2509 4147 2053 4147 
L 1259 4147 
z
" transform="scale(0.015625)"/>
      <path id="DejaVuSans-54" d="M -19 4666 
L 3928 4666 
L 3928 4134 
L 2272 4134 
L 2272 0 
L 1638 0 
L 1638 4134 
L -19 4134 
L -19 4666 
z
" transform="scale(0.015625)"/>
      <path id="DejaVuSans-66" d="M 2375 4863 
L 2375 4384 
L 1825 4384 
Q 1516 4384 1395 4259 
Q 1275 4134 1275 3809 
L 1275 3500 
L 2222 3500 
L 2222 3053 
L 1275 3053 
L 1275 0 
L 697 0 
L 697 3053 
L 147 3053 
L 147 3500 
L 697 3500 
L 697 3744 
Q 697 4328 969 4595 
Q 1241 4863 1831 4863 
L 2375 4863 
z
" transform="scale(0.015625)"/>
     </defs>
     <use xlink:href="#DejaVuSans-53"/>
     <use xlink:href="#DejaVuSans-26" transform="translate(63.476562 0)"/>
     <use xlink:href="#DejaVuSans-50" transform="translate(141.455078 0)"/>
     <use xlink:href="#DejaVuSans-20" transform="translate(201.757812 0)"/>
     <use xlink:href="#DejaVuSans-35" transform="translate(233.544922 0)"/>
     <use xlink:href="#DejaVuSans-30" transform="translate(297.167969 0)"/>
     <use xlink:href="#DejaVuSans-30" transform="translate(360.791016 0)"/>
     <use xlink:href="#DejaVuSans-20" transform="translate(424.414062 0)"/>
     <use xlink:href="#DejaVuSans-52" transform="translate(456.201172 0)"/>
     <use xlink:href="#DejaVuSans-65" transform="translate(521.183594 0)"/>
     <use xlink:href="#DejaVuSans-61" transform="translate(582.707031 0)"/>
     <use xlink:href="#DejaVuSans-63" transform="translate(643.986328 0)"/>
     <use xlink:href="#DejaVuSans-74" transform="translate(698.966797 0)"/>
     <use xlink:href="#DejaVuSans-69" transform="translate(738.175781 0)"/>
     <use xlink:href="#DejaVuSans-6f" transform="translate(765.958984 0)"/>
     <use xlink:href="#DejaVuSans-6e" transform="translate(827.140625 0)"/>
     <use xlink:href="#DejaVuSans-20" transform="translate(890.519531 0)"/>
     <use xlink:href="#DejaVuSans-74" transform="translate(922.306641 0)"/>
     <use xlink:href="#DejaVuSans-6f" transform="translate(961.515625 0)"/>
     <use xlink:href="#DejaVuSans-20" transform="translate(1022.697266 0)"/>
     <use xlink:href="#DejaVuSans-54" transform="translate(1054.484375 0)"/>
     <use xlink:href="#DejaVuSans-61" transform="translate(1099.068359 0)"/>
     <use xlink:href="#DejaVuSans-72" transform="translate(1160.347656 0)"/>
     <use xlink:href="#DejaVuSans-69" transform="translate(1201.460938 0)"/>
     <use xlink:href="#DejaVuSans-66" transform="translate(1229.244141 0)"/>
     <use xlink:href="#DejaVuSans-66" transform="translate(1264.449219 0)"/>
     <use xlink:href="#DejaVuSans-20" transform="translate(1299.654297 0)"/>
     <use xlink:href="#DejaVuSans-41" transform="translate(1331.441406 0)"/>
     <use xlink:href="#DejaVuSans-6e" transform="translate(1399.849609 0)"/>
     <use xlink:href="#DejaVuSans-6e" transform="translate(1463.228516 0)"/>
     <use xlink:href="#DejaVuSans-6f" transform="translate(1526.607422 0)"/>
     <use xlink:href="#DejaVuSans-75" transform="translate(1587.789062 0)"/>
     <use xlink:href="#DejaVuSans-6e" transform="translate(1651.167969 0)"/>
     <use xlink:href="#DejaVuSans-63" transform="translate(1714.546875 0)"/>
     <use xlink:href="#DejaVuSans-65" transform="translate(1769.527344 0)"/>
     <use xlink:href="#DejaVuSans-6d" transform="translate(1831.050781 0)"/>
     <use xlink:href="#DejaVuSans-65" transform="translate(1928.462891 0)"/>
     <use xlink:href="#DejaVuSans-6e" transform="translate(1989.986328 0)"/>
     <use xlink:href="#DejaVuSans-74" transform="translate(2053.365234 0)"/>
     <use xlink:href="#DejaVuSans-73" transform="translate(2092.574219 0)"/>
    </g>
   </g>
   <g id="legend_1">
    <g id="patch_7">
     <path d="M 51.495 73.342656 
L 100.590156 73.342656 
Q 101.990156 73.342656 101.990156 71.942656 
L 101.990156 31.06 
Q 101.990156 29.66 100.590156 29.66 
L 51.495 29.66 
Q 50.095 29.66 50.095 31.06 
L 50.095 71.942656 
Q 50.095 73.342656 51.495 73.342656 
z
" style="fill: #ffffff; opacity: 0.8; stroke: #cccccc; stroke-linejoin: miter"/>
    </g>
    <g id="text_16">
     <!-- Tariff scope -->
     <g transform="translate(54.659375 38.158828) scale(0.075 -0.075)">
      <defs>
       <path id="DejaVuSans-70" d="M 1159 525 
L 1159 -1331 
L 581 -1331 
L 581 3500 
L 1159 3500 
L 1159 2969 
Q 1341 3281 1617 3432 
Q 1894 3584 2278 3584 
Q 2916 3584 3314 3078 
Q 3713 2572 3713 1747 
Q 3713 922 3314 415 
Q 2916 -91 2278 -91 
Q 1894 -91 1617 61 
Q 1341 213 1159 525 
z
M 3116 1747 
Q 3116 2381 2855 2742 
Q 2594 3103 2138 3103 
Q 1681 3103 1420 2742 
Q 1159 2381 1159 1747 
Q 1159 1113 1420 752 
Q 1681 391 2138 391 
Q 2594 391 2855 752 
Q 3116 1113 3116 1747 
z
" transform="scale(0.015625)"/>
      </defs>
      <use xlink:href="#DejaVuSans-54"/>
      <use xlink:href="#DejaVuSans-61" transform="translate(44.583984 0)"/>
      <use xlink:href="#DejaVuSans-72" transform="translate(105.863281 0)"/>
      <use xlink:href="#DejaVuSans-69" transform="translate(146.976562 0)"/>
      <use xlink:href="#DejaVuSans-66" transform="translate(174.759766 0)"/>
      <use xlink:href="#DejaVuSans-66" transform="translate(209.964844 0)"/>
      <use xlink:href="#DejaVuSans-20" transform="translate(245.169922 0)"/>
      <use xlink:href="#DejaVuSans-73" transform="translate(276.957031 0)"/>
      <use xlink:href="#DejaVuSans-63" transform="translate(329.056641 0)"/>
      <use xlink:href="#DejaVuSans-6f" transform="translate(384.037109 0)"/>
      <use xlink:href="#DejaVuSans-70" transform="translate(445.21875 0)"/>
      <use xlink:href="#DejaVuSans-65" transform="translate(508.695312 0)"/>
     </g>
    </g>
    <g id="PathCollection_47">
     <defs>
      <path id="m35e59462dd" d="M 0 2.622022 
C 0.695368 2.622022 1.36235 2.345749 1.85405 1.85405 
C 2.345749 1.36235 2.622022 0.695368 2.622022 0 
C 2.622022 -0.695368 2.345749 -1.36235 1.85405 -1.85405 
C 1.36235 -2.345749 0.695368 -2.622022 0 -2.622022 
C -0.695368 -2.622022 -1.36235 -2.345749 -1.85405 -1.85405 
C -2.345749 -1.36235 -2.622022 -0.695368 -2.622022 0 
C -2.622022 0.695368 -2.345749 1.36235 -1.85405 1.85405 
C -1.36235 2.345749 -0.695368 2.622022 0 2.622022 
z
" style="stroke: #ffffff; stroke-opacity: 0.5; stroke-width: 0.6"/>
     </defs>
     <g>
      <use xlink:href="#m35e59462dd" x="59.895" y="46.7" style="fill: #808080; fill-opacity: 0.5; stroke: #ffffff; stroke-opacity: 0.5; stroke-width: 0.6"/>
     </g>
    </g>
    <g id="text_17">
     <!-- $50bn -->
     <g transform="translate(72.495 48.5375) scale(0.07 -0.07)">
      <defs>
       <path id="DejaVuSans-24" d="M 2163 -941 
L 1850 -941 
L 1847 0 
Q 1519 6 1191 76 
Q 863 147 531 288 
L 531 850 
Q 850 650 1176 548 
Q 1503 447 1850 444 
L 1850 1869 
Q 1159 1981 845 2250 
Q 531 2519 531 2988 
Q 531 3497 872 3790 
Q 1213 4084 1850 4128 
L 1850 4863 
L 2163 4863 
L 2163 4138 
Q 2453 4125 2725 4076 
Q 2997 4028 3256 3944 
L 3256 3397 
Q 2997 3528 2723 3600 
Q 2450 3672 2163 3684 
L 2163 2350 
Q 2872 2241 3206 1959 
Q 3541 1678 3541 1191 
Q 3541 663 3186 358 
Q 2831 53 2163 6 
L 2163 -941 
z
M 1850 2406 
L 1850 3688 
Q 1488 3647 1297 3481 
Q 1106 3316 1106 3041 
Q 1106 2772 1282 2622 
Q 1459 2472 1850 2406 
z
M 2163 1806 
L 2163 453 
Q 2559 506 2761 678 
Q 2963 850 2963 1131 
Q 2963 1406 2770 1568 
Q 2578 1731 2163 1806 
z
" transform="scale(0.015625)"/>
      </defs>
      <use xlink:href="#DejaVuSans-24"/>
      <use xlink:href="#DejaVuSans-35" transform="translate(63.623047 0)"/>
      <use xlink:href="#DejaVuSans-30" transform="translate(127.246094 0)"/>
      <use xlink:href="#DejaVuSans-62" transform="translate(190.869141 0)"/>
      <use xlink:href="#DejaVuSans-6e" transform="translate(254.345703 0)"/>
     </g>
    </g>
    <g id="PathCollection_48">
     <defs>
      <path id="m2ad409b74e" d="M 0 5.244044 
C 1.390737 5.244044 2.7247 4.691499 3.708099 3.708099 
C 4.691499 2.7247 5.244044 1.390737 5.244044 0 
C 5.244044 -1.390737 4.691499 -2.7247 3.708099 -3.708099 
C 2.7247 -4.691499 1.390737 -5.244044 0 -5.244044 
C -1.390737 -5.244044 -2.7247 -4.691499 -3.708099 -3.708099 
C -4.691499 -2.7247 -5.244044 -1.390737 -5.244044 0 
C -5.244044 1.390737 -4.691499 2.7247 -3.708099 3.708099 
C -2.7247 4.691499 -1.390737 5.244044 0 5.244044 
z
" style="stroke: #ffffff; stroke-opacity: 0.5; stroke-width: 0.6"/>
     </defs>
     <g>
      <use xlink:href="#m2ad409b74e" x="59.895" y="56.974687" style="fill: #808080; fill-opacity: 0.5; stroke: #ffffff; stroke-opacity: 0.5; stroke-width: 0.6"/>
     </g>
    </g>
    <g id="text_18">
     <!-- $200bn -->
     <g transform="translate(72.495 58.812187) scale(0.07 -0.07)">
      <use xlink:href="#DejaVuSans-24"/>
      <use xlink:href="#DejaVuSans-32" transform="translate(63.623047 0)"/>
      <use xlink:href="#DejaVuSans-30" transform="translate(127.246094 0)"/>
      <use xlink:href="#DejaVuSans-30" transform="translate(190.869141 0)"/>
      <use xlink:href="#DejaVuSans-62" transform="translate(254.492188 0)"/>
      <use xlink:href="#DejaVuSans-6e" transform="translate(317.96875 0)"/>
     </g>
    </g>
    <g id="PathCollection_49">
     <defs>
      <path id="m8d4bf0df1b" d="M 0 9.082951 
C 2.408827 9.082951 4.719319 8.125914 6.422616 6.422616 
C 8.125914 4.719319 9.082951 2.408827 9.082951 0 
C 9.082951 -2.408827 8.125914 -4.719319 6.422616 -6.422616 
C 4.719319 -8.125914 2.408827 -9.082951 0 -9.082951 
C -2.408827 -9.082951 -4.719319 -8.125914 -6.422616 -6.422616 
C -8.125914 -4.719319 -9.082951 -2.408827 -9.082951 0 
C -9.082951 2.408827 -8.125914 4.719319 -6.422616 6.422616 
C -4.719319 8.125914 -2.408827 9.082951 0 9.082951 
z
" style="stroke: #ffffff; stroke-opacity: 0.5; stroke-width: 0.6"/>
     </defs>
     <g>
      <use xlink:href="#m8d4bf0df1b" x="59.895" y="67.249375" style="fill: #808080; fill-opacity: 0.5; stroke: #ffffff; stroke-opacity: 0.5; stroke-width: 0.6"/>
     </g>
    </g>
    <g id="text_19">
     <!-- $600bn -->
     <g transform="translate(72.495 69.086875) scale(0.07 -0.07)">
      <use xlink:href="#DejaVuSans-24"/>
      <use xlink:href="#DejaVuSans-36" transform="translate(63.623047 0)"/>
      <use xlink:href="#DejaVuSans-30" transform="translate(127.246094 0)"/>
      <use xlink:href="#DejaVuSans-30" transform="translate(190.869141 0)"/>
      <use xlink:href="#DejaVuSans-62" transform="translate(254.492188 0)"/>
      <use xlink:href="#DejaVuSans-6e" transform="translate(317.96875 0)"/>
     </g>
    </g>
   </g>
   <g id="legend_2">
    <g id="patch_8">
     <path d="M 667.960116 357.17 
L 788.555429 357.17 
Q 790.055429 357.17 790.055429 355.67 
L 790.055429 301.377031 
Q 790.055429 299.877031 788.555429 299.877031 
L 667.960116 299.877031 
Q 666.460116 299.877031 666.460116 301.377031 
L 666.460116 355.67 
Q 666.460116 357.17 667.960116 357.17 
z
" style="fill: #ffffff; opacity: 0.8; stroke: #cccccc; stroke-linejoin: miter"/>
    </g>
    <g id="line2d_58">
     <defs>
      <path id="m653c827ffb" d="M 0 4 
C 1.060812 4 2.078319 3.578535 2.828427 2.828427 
C 3.578535 2.078319 4 1.060812 4 0 
C 4 -1.060812 3.578535 -2.078319 2.828427 -2.828427 
C 2.078319 -3.578535 1.060812 -4 0 -4 
C -1.060812 -4 -2.078319 -3.578535 -2.828427 -2.828427 
C -3.578535 -2.078319 -4 -1.060812 -4 0 
C -4 1.060812 -3.578535 2.078319 -2.828427 2.828427 
C -2.078319 3.578535 -1.060812 4 0 4 
z
" style="stroke: #d62728"/>
     </defs>
     <g>
      <use xlink:href="#m653c827ffb" x="676.960116" y="305.950859" style="fill: #d62728; stroke: #d62728"/>
     </g>
    </g>
    <g id="text_20">
     <!-- Market reacted (≤ −0.5σ) -->
     <g transform="translate(690.460116 308.575859) scale(0.075 -0.075)">
      <defs>
       <path id="DejaVuSans-2264" d="M 4684 3175 
L 1684 2309 
L 4684 1453 
L 4684 897 
L 678 2047 
L 678 2578 
L 4684 3725 
L 4684 3175 
z
M 678 531 
L 4684 531 
L 4684 0 
L 678 0 
L 678 531 
z
" transform="scale(0.015625)"/>
       <path id="DejaVuSans-2e" d="M 684 794 
L 1344 794 
L 1344 0 
L 684 0 
L 684 794 
z
" transform="scale(0.015625)"/>
       <path id="DejaVuSans-3c3" d="M 1959 3044 
Q 1484 3044 1228 2700 
Q 959 2341 959 1747 
Q 959 1119 1226 758 
Q 1494 397 1959 397 
Q 2419 397 2687 759 
Q 2956 1122 2956 1747 
Q 2956 2319 2688 2700 
Q 2441 3044 1959 3044 
z
M 1959 3500 
L 3869 3500 
L 3869 2925 
L 3225 2925 
Q 3566 2438 3566 1747 
Q 3566 888 3138 400 
Q 2709 -91 1959 -91 
Q 1206 -91 781 400 
Q 353 888 353 1747 
Q 353 2613 781 3097 
Q 1134 3500 1959 3500 
z
" transform="scale(0.015625)"/>
      </defs>
      <use xlink:href="#DejaVuSans-4d"/>
      <use xlink:href="#DejaVuSans-61" transform="translate(86.279297 0)"/>
      <use xlink:href="#DejaVuSans-72" transform="translate(147.558594 0)"/>
      <use xlink:href="#DejaVuSans-6b" transform="translate(188.671875 0)"/>
      <use xlink:href="#DejaVuSans-65" transform="translate(242.957031 0)"/>
      <use xlink:href="#DejaVuSans-74" transform="translate(304.480469 0)"/>
      <use xlink:href="#DejaVuSans-20" transform="translate(343.689453 0)"/>
      <use xlink:href="#DejaVuSans-72" transform="translate(375.476562 0)"/>
      <use xlink:href="#DejaVuSans-65" transform="translate(414.339844 0)"/>
      <use xlink:href="#DejaVuSans-61" transform="translate(475.863281 0)"/>
      <use xlink:href="#DejaVuSans-63" transform="translate(537.142578 0)"/>
      <use xlink:href="#DejaVuSans-74" transform="translate(592.123047 0)"/>
      <use xlink:href="#DejaVuSans-65" transform="translate(631.332031 0)"/>
      <use xlink:href="#DejaVuSans-64" transform="translate(692.855469 0)"/>
      <use xlink:href="#DejaVuSans-20" transform="translate(756.332031 0)"/>
      <use xlink:href="#DejaVuSans-28" transform="translate(788.119141 0)"/>
      <use xlink:href="#DejaVuSans-2264" transform="translate(827.132812 0)"/>
      <use xlink:href="#DejaVuSans-20" transform="translate(910.921875 0)"/>
      <use xlink:href="#DejaVuSans-2212" transform="translate(942.708984 0)"/>
      <use xlink:href="#DejaVuSans-30" transform="translate(1026.498047 0)"/>
      <use xlink:href="#DejaVuSans-2e" transform="translate(1090.121094 0)"/>
      <use xlink:href="#DejaVuSans-35" transform="translate(1121.908203 0)"/>
      <use xlink:href="#DejaVuSans-3c3" transform="translate(1185.53125 0)"/>
      <use xlink:href="#DejaVuSans-29" transform="translate(1248.910156 0)"/>
     </g>
    </g>
    <g id="line2d_59">
     <defs>
      <path id="m8db26b7c2e" d="M 0 4 
C 1.060812 4 2.078319 3.578535 2.828427 2.828427 
C 3.578535 2.078319 4 1.060812 4 0 
C 4 -1.060812 3.578535 -2.078319 2.828427 -2.828427 
C 2.078319 -3.578535 1.060812 -4 0 -4 
C -1.060812 -4 -2.078319 -3.578535 -2.828427 -2.828427 
C -3.578535 -2.078319 -4 -1.060812 -4 0 
C -4 1.060812 -3.578535 2.078319 -2.828427 2.828427 
C -2.078319 3.578535 -1.060812 4 0 4 
z
" style="stroke: #1f77b4"/>
     </defs>
     <g>
      <use xlink:href="#m8db26b7c2e" x="676.960116" y="316.959453" style="fill: #1f77b4; stroke: #1f77b4"/>
     </g>
    </g>
    <g id="text_21">
     <!-- Market calls bluff -->
     <g transform="translate(690.460116 319.584453) scale(0.075 -0.075)">
      <use xlink:href="#DejaVuSans-4d"/>
      <use xlink:href="#DejaVuSans-61" transform="translate(86.279297 0)"/>
      <use xlink:href="#DejaVuSans-72" transform="translate(147.558594 0)"/>
      <use xlink:href="#DejaVuSans-6b" transform="translate(188.671875 0)"/>
      <use xlink:href="#DejaVuSans-65" transform="translate(242.957031 0)"/>
      <use xlink:href="#DejaVuSans-74" transform="translate(304.480469 0)"/>
      <use xlink:href="#DejaVuSans-20" transform="translate(343.689453 0)"/>
      <use xlink:href="#DejaVuSans-63" transform="translate(375.476562 0)"/>
      <use xlink:href="#DejaVuSans-61" transform="translate(430.457031 0)"/>
      <use xlink:href="#DejaVuSans-6c" transform="translate(491.736328 0)"/>
      <use xlink:href="#DejaVuSans-6c" transform="translate(519.519531 0)"/>
      <use xlink:href="#DejaVuSans-73" transform="translate(547.302734 0)"/>
      <use xlink:href="#DejaVuSans-20" transform="translate(599.402344 0)"/>
      <use xlink:href="#DejaVuSans-62" transform="translate(631.189453 0)"/>
      <use xlink:href="#DejaVuSans-6c" transform="translate(694.666016 0)"/>
      <use xlink:href="#DejaVuSans-75" transform="translate(722.449219 0)"/>
      <use xlink:href="#DejaVuSans-66" transform="translate(785.828125 0)"/>
      <use xlink:href="#DejaVuSans-66" transform="translate(821.033203 0)"/>
     </g>
    </g>
    <g id="line2d_60">
     <defs>
      <path id="ma6c6b49511" d="M 0 4 
C 1.060812 4 2.078319 3.578535 2.828427 2.828427 
C 3.578535 2.078319 4 1.060812 4 0 
C 4 -1.060812 3.578535 -2.078319 2.828427 -2.828427 
C 2.078319 -3.578535 1.060812 -4 0 -4 
C -1.060812 -4 -2.078319 -3.578535 -2.828427 -2.828427 
C -3.578535 -2.078319 -4 -1.060812 -4 0 
C -4 1.060812 -3.578535 2.078319 -2.828427 2.828427 
C -2.078319 3.578535 -1.060812 4 0 4 
z
" style="stroke: #2ca02c"/>
     </defs>
     <g>
      <use xlink:href="#ma6c6b49511" x="676.960116" y="327.968047" style="fill: #2ca02c; stroke: #2ca02c"/>
     </g>
    </g>
    <g id="text_22">
     <!-- Trump retreat (relief) -->
     <g transform="translate(690.460116 330.593047) scale(0.075 -0.075)">
      <use xlink:href="#DejaVuSans-54"/>
      <use xlink:href="#DejaVuSans-72" transform="translate(46.333984 0)"/>
      <use xlink:href="#DejaVuSans-75" transform="translate(87.447266 0)"/>
      <use xlink:href="#DejaVuSans-6d" transform="translate(150.826172 0)"/>
      <use xlink:href="#DejaVuSans-70" transform="translate(248.238281 0)"/>
      <use xlink:href="#DejaVuSans-20" transform="translate(311.714844 0)"/>
      <use xlink:href="#DejaVuSans-72" transform="translate(343.501953 0)"/>
      <use xlink:href="#DejaVuSans-65" transform="translate(382.365234 0)"/>
      <use xlink:href="#DejaVuSans-74" transform="translate(443.888672 0)"/>
      <use xlink:href="#DejaVuSans-72" transform="translate(483.097656 0)"/>
      <use xlink:href="#DejaVuSans-65" transform="translate(521.960938 0)"/>
      <use xlink:href="#DejaVuSans-61" transform="translate(583.484375 0)"/>
      <use xlink:href="#DejaVuSans-74" transform="translate(644.763672 0)"/>
      <use xlink:href="#DejaVuSans-20" transform="translate(683.972656 0)"/>
      <use xlink:href="#DejaVuSans-28" transform="translate(715.759766 0)"/>
      <use xlink:href="#DejaVuSans-72" transform="translate(754.773438 0)"/>
      <use xlink:href="#DejaVuSans-65" transform="translate(793.636719 0)"/>
      <use xlink:href="#DejaVuSans-6c" transform="translate(855.160156 0)"/>
      <use xlink:href="#DejaVuSans-69" transform="translate(882.943359 0)"/>
      <use xlink:href="#DejaVuSans-65" transform="translate(910.726562 0)"/>
      <use xlink:href="#DejaVuSans-66" transform="translate(972.25 0)"/>
      <use xlink:href="#DejaVuSans-29" transform="translate(1007.455078 0)"/>
     </g>
    </g>
    <g id="line2d_61">
     <path d="M 669.460116 338.976641 
L 676.960116 338.976641 
L 684.460116 338.976641 
" style="fill: none; stroke-dasharray: 5.55,2.4; stroke-dashoffset: 0; stroke: #808080; stroke-width: 1.5"/>
    </g>
    <g id="text_23">
     <!-- Tariff announcement -->
     <g transform="translate(690.460116 341.601641) scale(0.075 -0.075)">
      <use xlink:href="#DejaVuSans-54"/>
      <use xlink:href="#DejaVuSans-61" transform="translate(44.583984 0)"/>
      <use xlink:href="#DejaVuSans-72" transform="translate(105.863281 0)"/>
      <use xlink:href="#DejaVuSans-69" transform="translate(146.976562 0)"/>
      <use xlink:href="#DejaVuSans-66" transform="translate(174.759766 0)"/>
      <use xlink:href="#DejaVuSans-66" transform="translate(209.964844 0)"/>
      <use xlink:href="#DejaVuSans-20" transform="translate(245.169922 0)"/>
      <use xlink:href="#DejaVuSans-61" transform="translate(276.957031 0)"/>
      <use xlink:href="#DejaVuSans-6e" transform="translate(338.236328 0)"/>
      <use xlink:href="#DejaVuSans-6e" transform="translate(401.615234 0)"/>
      <use xlink:href="#DejaVuSans-6f" transform="translate(464.994141 0)"/>
      <use xlink:href="#DejaVuSans-75" transform="translate(526.175781 0)"/>
      <use xlink:href="#DejaVuSans-6e" transform="translate(589.554688 0)"/>
      <use xlink:href="#DejaVuSans-63" transform="translate(652.933594 0)"/>
      <use xlink:href="#DejaVuSans-65" transform="translate(707.914062 0)"/>
      <use xlink:href="#DejaVuSans-6d" transform="translate(769.4375 0)"/>
      <use xlink:href="#DejaVuSans-65" transform="translate(866.849609 0)"/>
      <use xlink:href="#DejaVuSans-6e" transform="translate(928.373047 0)"/>
      <use xlink:href="#DejaVuSans-74" transform="translate(991.751953 0)"/>
     </g>
    </g>
    <g id="line2d_62">
     <path d="M 669.460116 349.985234 
L 676.960116 349.985234 
L 684.460116 349.985234 
" style="fill: none; stroke-dasharray: 1.5,2.475; stroke-dashoffset: 0; stroke: #2ca02c; stroke-width: 1.5"/>
    </g>
    <g id="text_24">
     <!-- Trump backs out -->
     <g transform="translate(690.460116 352.610234) scale(0.075 -0.075)">
      <use xlink:href="#DejaVuSans-54"/>
      <use xlink:href="#DejaVuSans-72" transform="translate(46.333984 0)"/>
      <use xlink:href="#DejaVuSans-75" transform="translate(87.447266 0)"/>
      <use xlink:href="#DejaVuSans-6d" transform="translate(150.826172 0)"/>
      <use xlink:href="#DejaVuSans-70" transform="translate(248.238281 0)"/>
      <use xlink:href="#DejaVuSans-20" transform="translate(311.714844 0)"/>
      <use xlink:href="#DejaVuSans-62" transform="translate(343.501953 0)"/>
      <use xlink:href="#DejaVuSans-61" transform="translate(406.978516 0)"/>
      <use xlink:href="#DejaVuSans-63" transform="translate(468.257812 0)"/>
      <use xlink:href="#DejaVuSans-6b" transform="translate(523.238281 0)"/>
      <use xlink:href="#DejaVuSans-73" transform="translate(581.148438 0)"/>
      <use xlink:href="#DejaVuSans-20" transform="translate(633.248047 0)"/>
      <use xlink:href="#DejaVuSans-6f" transform="translate(665.035156 0)"/>
      <use xlink:href="#DejaVuSans-75" transform="translate(726.216797 0)"/>
      <use xlink:href="#DejaVuSans-74" transform="translate(789.595703 0)"/>
     </g>
    </g>
   </g>
  </g>
 </g>
 <defs>
  <clipPath id="p08834b11b7">
   <rect x="46.595" y="26.16" width="747.210429" height="334.76"/>
  </clipPath>
 </defs>
</svg>
